<mxfile host="Electron" modified="2023-11-21T20:06:54.146Z" agent="Mozilla/5.0 (Macintosh; Intel Mac OS X 10_15_7) AppleWebKit/537.36 (KHTML, like Gecko) draw.io/21.2.8 Chrome/112.0.5615.165 Electron/24.2.0 Safari/537.36" etag="CEfSHzSRHWgKhYyWRjEU" version="21.2.8" type="device" pages="4">
  <diagram name="Background" id="V2dcKFTEPrB0e752fry4">
    <mxGraphModel dx="1359" dy="840" grid="1" gridSize="10" guides="1" tooltips="1" connect="1" arrows="1" fold="1" page="1" pageScale="1" pageWidth="850" pageHeight="1100" math="0" shadow="0">
      <root>
        <mxCell id="0" />
        <mxCell id="1" parent="0" />
        <mxCell id="kkg-90-NyaZwoFYJPE6_-19" value="Line of Business" style="swimlane;whiteSpace=wrap;html=1;" vertex="1" parent="1">
          <mxGeometry x="40" y="40" width="160" height="120" as="geometry" />
        </mxCell>
        <mxCell id="kkg-90-NyaZwoFYJPE6_-23" value="Model" style="rounded=1;whiteSpace=wrap;html=1;" vertex="1" parent="kkg-90-NyaZwoFYJPE6_-19">
          <mxGeometry x="40" y="40" width="80" height="40" as="geometry" />
        </mxCell>
        <mxCell id="kkg-90-NyaZwoFYJPE6_-24" value="Organization" style="swimlane;whiteSpace=wrap;html=1;" vertex="1" parent="1">
          <mxGeometry x="40" y="320" width="720" height="400" as="geometry" />
        </mxCell>
        <mxCell id="kkg-90-NyaZwoFYJPE6_-8" value="LOB - Claim" style="swimlane;whiteSpace=wrap;html=1;" vertex="1" parent="kkg-90-NyaZwoFYJPE6_-24">
          <mxGeometry x="80" y="80" width="160" height="240" as="geometry" />
        </mxCell>
        <mxCell id="kkg-90-NyaZwoFYJPE6_-2" value="Document&lt;br&gt;Classification" style="rounded=1;whiteSpace=wrap;html=1;" vertex="1" parent="kkg-90-NyaZwoFYJPE6_-8">
          <mxGeometry x="40" y="40" width="80" height="40" as="geometry" />
        </mxCell>
        <mxCell id="kkg-90-NyaZwoFYJPE6_-11" value="..." style="rounded=1;whiteSpace=wrap;html=1;" vertex="1" parent="kkg-90-NyaZwoFYJPE6_-8">
          <mxGeometry x="40" y="100" width="80" height="40" as="geometry" />
        </mxCell>
        <mxCell id="kkg-90-NyaZwoFYJPE6_-12" value="..." style="rounded=1;whiteSpace=wrap;html=1;" vertex="1" parent="kkg-90-NyaZwoFYJPE6_-8">
          <mxGeometry x="40" y="160" width="80" height="40" as="geometry" />
        </mxCell>
        <mxCell id="kkg-90-NyaZwoFYJPE6_-9" value="LOB - Customer" style="swimlane;whiteSpace=wrap;html=1;" vertex="1" parent="kkg-90-NyaZwoFYJPE6_-24">
          <mxGeometry x="280" y="80" width="160" height="240" as="geometry" />
        </mxCell>
        <mxCell id="kkg-90-NyaZwoFYJPE6_-3" value="Customer&lt;br&gt;Churn" style="rounded=1;whiteSpace=wrap;html=1;" vertex="1" parent="kkg-90-NyaZwoFYJPE6_-9">
          <mxGeometry x="40" y="40" width="80" height="40" as="geometry" />
        </mxCell>
        <mxCell id="kkg-90-NyaZwoFYJPE6_-13" value="..." style="rounded=1;whiteSpace=wrap;html=1;" vertex="1" parent="kkg-90-NyaZwoFYJPE6_-9">
          <mxGeometry x="40" y="100" width="80" height="40" as="geometry" />
        </mxCell>
        <mxCell id="kkg-90-NyaZwoFYJPE6_-14" value="..." style="rounded=1;whiteSpace=wrap;html=1;" vertex="1" parent="kkg-90-NyaZwoFYJPE6_-9">
          <mxGeometry x="40" y="160" width="80" height="40" as="geometry" />
        </mxCell>
        <mxCell id="kkg-90-NyaZwoFYJPE6_-10" value="LOB - Billing and Payment" style="swimlane;whiteSpace=wrap;html=1;" vertex="1" parent="kkg-90-NyaZwoFYJPE6_-24">
          <mxGeometry x="480" y="80" width="160" height="240" as="geometry" />
        </mxCell>
        <mxCell id="kkg-90-NyaZwoFYJPE6_-17" value="..." style="rounded=1;whiteSpace=wrap;html=1;" vertex="1" parent="kkg-90-NyaZwoFYJPE6_-10">
          <mxGeometry x="40" y="100" width="80" height="40" as="geometry" />
        </mxCell>
        <mxCell id="kkg-90-NyaZwoFYJPE6_-18" value="..." style="rounded=1;whiteSpace=wrap;html=1;" vertex="1" parent="kkg-90-NyaZwoFYJPE6_-10">
          <mxGeometry x="40" y="160" width="80" height="40" as="geometry" />
        </mxCell>
        <mxCell id="kkg-90-NyaZwoFYJPE6_-4" value="Fraud Detection" style="rounded=1;whiteSpace=wrap;html=1;" vertex="1" parent="kkg-90-NyaZwoFYJPE6_-10">
          <mxGeometry x="40" y="40" width="80" height="40" as="geometry" />
        </mxCell>
      </root>
    </mxGraphModel>
  </diagram>
  <diagram id="8ofUkTf2HRap0pkAUCSW" name="Measurement">
    <mxGraphModel dx="2091" dy="1292" grid="1" gridSize="10" guides="1" tooltips="1" connect="1" arrows="1" fold="1" page="1" pageScale="1" pageWidth="850" pageHeight="1100" math="0" shadow="0">
      <root>
        <mxCell id="0" />
        <mxCell id="1" parent="0" />
        <mxCell id="ZTwKh8XUpOnrs2_KcRQO-1" value="LOB - Claim" style="swimlane;whiteSpace=wrap;html=1;" vertex="1" parent="1">
          <mxGeometry x="40" y="160" width="160" height="240" as="geometry" />
        </mxCell>
        <mxCell id="ZTwKh8XUpOnrs2_KcRQO-2" value="Document&lt;br&gt;Classification" style="rounded=1;whiteSpace=wrap;html=1;" vertex="1" parent="ZTwKh8XUpOnrs2_KcRQO-1">
          <mxGeometry x="40" y="40" width="80" height="40" as="geometry" />
        </mxCell>
        <mxCell id="ZTwKh8XUpOnrs2_KcRQO-3" value="..." style="rounded=1;whiteSpace=wrap;html=1;" vertex="1" parent="ZTwKh8XUpOnrs2_KcRQO-1">
          <mxGeometry x="40" y="100" width="80" height="40" as="geometry" />
        </mxCell>
        <mxCell id="ZTwKh8XUpOnrs2_KcRQO-4" value="..." style="rounded=1;whiteSpace=wrap;html=1;" vertex="1" parent="ZTwKh8XUpOnrs2_KcRQO-1">
          <mxGeometry x="40" y="160" width="80" height="40" as="geometry" />
        </mxCell>
        <mxCell id="ZTwKh8XUpOnrs2_KcRQO-6" value="CloudWatch&lt;br&gt;Service" style="sketch=0;points=[[0,0,0],[0.25,0,0],[0.5,0,0],[0.75,0,0],[1,0,0],[0,1,0],[0.25,1,0],[0.5,1,0],[0.75,1,0],[1,1,0],[0,0.25,0],[0,0.5,0],[0,0.75,0],[1,0.25,0],[1,0.5,0],[1,0.75,0]];points=[[0,0,0],[0.25,0,0],[0.5,0,0],[0.75,0,0],[1,0,0],[0,1,0],[0.25,1,0],[0.5,1,0],[0.75,1,0],[1,1,0],[0,0.25,0],[0,0.5,0],[0,0.75,0],[1,0.25,0],[1,0.5,0],[1,0.75,0]];outlineConnect=0;fontColor=#232F3E;gradientColor=#F34482;gradientDirection=north;fillColor=#BC1356;strokeColor=#ffffff;dashed=0;verticalLabelPosition=bottom;verticalAlign=top;align=center;html=1;fontSize=12;fontStyle=0;aspect=fixed;shape=mxgraph.aws4.resourceIcon;resIcon=mxgraph.aws4.cloudwatch_2;" vertex="1" parent="1">
          <mxGeometry x="80" y="1320" width="80" height="80" as="geometry" />
        </mxCell>
        <mxCell id="ZTwKh8XUpOnrs2_KcRQO-7" value="CloudWatch &lt;br&gt;Log Group" style="sketch=0;points=[[0,0,0],[0.25,0,0],[0.5,0,0],[0.75,0,0],[1,0,0],[0,1,0],[0.25,1,0],[0.5,1,0],[0.75,1,0],[1,1,0],[0,0.25,0],[0,0.5,0],[0,0.75,0],[1,0.25,0],[1,0.5,0],[1,0.75,0]];points=[[0,0,0],[0.25,0,0],[0.5,0,0],[0.75,0,0],[1,0,0],[0,1,0],[0.25,1,0],[0.5,1,0],[0.75,1,0],[1,1,0],[0,0.25,0],[0,0.5,0],[0,0.75,0],[1,0.25,0],[1,0.5,0],[1,0.75,0]];outlineConnect=0;gradientDirection=north;fillColor=#d5e8d4;strokeColor=#82b366;dashed=0;verticalLabelPosition=bottom;verticalAlign=top;align=center;html=1;fontSize=12;fontStyle=0;aspect=fixed;shape=mxgraph.aws4.resourceIcon;resIcon=mxgraph.aws4.cloudwatch_2;" vertex="1" parent="1">
          <mxGeometry x="200" y="1320" width="80" height="80" as="geometry" />
        </mxCell>
        <mxCell id="ZTwKh8XUpOnrs2_KcRQO-9" value="CloudWatch &lt;br&gt;Log Stream" style="sketch=0;points=[[0,0,0],[0.25,0,0],[0.5,0,0],[0.75,0,0],[1,0,0],[0,1,0],[0.25,1,0],[0.5,1,0],[0.75,1,0],[1,1,0],[0,0.25,0],[0,0.5,0],[0,0.75,0],[1,0.25,0],[1,0.5,0],[1,0.75,0]];points=[[0,0,0],[0.25,0,0],[0.5,0,0],[0.75,0,0],[1,0,0],[0,1,0],[0.25,1,0],[0.5,1,0],[0.75,1,0],[1,1,0],[0,0.25,0],[0,0.5,0],[0,0.75,0],[1,0.25,0],[1,0.5,0],[1,0.75,0]];outlineConnect=0;gradientDirection=north;fillColor=#dae8fc;strokeColor=#6c8ebf;dashed=0;verticalLabelPosition=bottom;verticalAlign=top;align=center;html=1;fontSize=12;fontStyle=0;aspect=fixed;shape=mxgraph.aws4.resourceIcon;resIcon=mxgraph.aws4.cloudwatch_2;" vertex="1" parent="1">
          <mxGeometry x="320" y="1320" width="80" height="80" as="geometry" />
        </mxCell>
        <mxCell id="ZTwKh8XUpOnrs2_KcRQO-10" value="/${org_name}/claim/doc_classification" style="sketch=0;points=[[0,0,0],[0.25,0,0],[0.5,0,0],[0.75,0,0],[1,0,0],[0,1,0],[0.25,1,0],[0.5,1,0],[0.75,1,0],[1,1,0],[0,0.25,0],[0,0.5,0],[0,0.75,0],[1,0.25,0],[1,0.5,0],[1,0.75,0]];points=[[0,0,0],[0.25,0,0],[0.5,0,0],[0.75,0,0],[1,0,0],[0,1,0],[0.25,1,0],[0.5,1,0],[0.75,1,0],[1,1,0],[0,0.25,0],[0,0.5,0],[0,0.75,0],[1,0.25,0],[1,0.5,0],[1,0.75,0]];outlineConnect=0;gradientDirection=north;fillColor=#d5e8d4;strokeColor=#82b366;dashed=0;verticalLabelPosition=bottom;verticalAlign=top;align=center;html=1;fontSize=12;fontStyle=0;aspect=fixed;shape=mxgraph.aws4.resourceIcon;resIcon=mxgraph.aws4.cloudwatch_2;" vertex="1" parent="1">
          <mxGeometry x="320" y="1560" width="80" height="80" as="geometry" />
        </mxCell>
        <mxCell id="ZTwKh8XUpOnrs2_KcRQO-11" value="deployment_1/server_1" style="sketch=0;points=[[0,0,0],[0.25,0,0],[0.5,0,0],[0.75,0,0],[1,0,0],[0,1,0],[0.25,1,0],[0.5,1,0],[0.75,1,0],[1,1,0],[0,0.25,0],[0,0.5,0],[0,0.75,0],[1,0.25,0],[1,0.5,0],[1,0.75,0]];points=[[0,0,0],[0.25,0,0],[0.5,0,0],[0.75,0,0],[1,0,0],[0,1,0],[0.25,1,0],[0.5,1,0],[0.75,1,0],[1,1,0],[0,0.25,0],[0,0.5,0],[0,0.75,0],[1,0.25,0],[1,0.5,0],[1,0.75,0]];outlineConnect=0;gradientDirection=north;fillColor=#dae8fc;strokeColor=#6c8ebf;dashed=0;verticalLabelPosition=bottom;verticalAlign=top;align=center;html=1;fontSize=12;fontStyle=0;aspect=fixed;shape=mxgraph.aws4.resourceIcon;resIcon=mxgraph.aws4.cloudwatch_2;" vertex="1" parent="1">
          <mxGeometry x="320" y="1680" width="80" height="80" as="geometry" />
        </mxCell>
        <mxCell id="ZTwKh8XUpOnrs2_KcRQO-12" value="Server 1" style="sketch=0;outlineConnect=0;fontColor=#232F3E;gradientColor=none;fillColor=#D45B07;strokeColor=none;dashed=0;verticalLabelPosition=bottom;verticalAlign=top;align=center;html=1;fontSize=12;fontStyle=0;pointerEvents=1;shape=mxgraph.aws4.container_2;" vertex="1" parent="1">
          <mxGeometry x="720" y="560" width="80" height="40" as="geometry" />
        </mxCell>
        <mxCell id="ZTwKh8XUpOnrs2_KcRQO-13" value="Server 2" style="sketch=0;outlineConnect=0;fontColor=#232F3E;gradientColor=none;fillColor=#D45B07;strokeColor=none;dashed=0;verticalLabelPosition=bottom;verticalAlign=top;align=center;html=1;fontSize=12;fontStyle=0;pointerEvents=1;shape=mxgraph.aws4.container_2;" vertex="1" parent="1">
          <mxGeometry x="720" y="660" width="80" height="40" as="geometry" />
        </mxCell>
        <mxCell id="ZTwKh8XUpOnrs2_KcRQO-29" style="edgeStyle=orthogonalEdgeStyle;rounded=0;orthogonalLoop=1;jettySize=auto;html=1;" edge="1" parent="1" source="ZTwKh8XUpOnrs2_KcRQO-14" target="ZTwKh8XUpOnrs2_KcRQO-15">
          <mxGeometry relative="1" as="geometry">
            <Array as="points">
              <mxPoint x="440" y="840" />
              <mxPoint x="440" y="680" />
            </Array>
          </mxGeometry>
        </mxCell>
        <mxCell id="ZTwKh8XUpOnrs2_KcRQO-30" style="edgeStyle=orthogonalEdgeStyle;rounded=0;orthogonalLoop=1;jettySize=auto;html=1;exitX=1;exitY=0.5;exitDx=0;exitDy=0;exitPerimeter=0;dashed=1;" edge="1" parent="1" source="ZTwKh8XUpOnrs2_KcRQO-14" target="ZTwKh8XUpOnrs2_KcRQO-26">
          <mxGeometry relative="1" as="geometry">
            <Array as="points">
              <mxPoint x="440" y="840" />
              <mxPoint x="440" y="1000" />
            </Array>
          </mxGeometry>
        </mxCell>
        <mxCell id="ZTwKh8XUpOnrs2_KcRQO-14" value="API Gateway&lt;br&gt;(Auth and Route)" style="sketch=0;points=[[0,0,0],[0.25,0,0],[0.5,0,0],[0.75,0,0],[1,0,0],[0,1,0],[0.25,1,0],[0.5,1,0],[0.75,1,0],[1,1,0],[0,0.25,0],[0,0.5,0],[0,0.75,0],[1,0.25,0],[1,0.5,0],[1,0.75,0]];outlineConnect=0;fontColor=#232F3E;gradientColor=#FF4F8B;gradientDirection=north;fillColor=#BC1356;strokeColor=#ffffff;dashed=0;verticalLabelPosition=bottom;verticalAlign=top;align=center;html=1;fontSize=12;fontStyle=0;aspect=fixed;shape=mxgraph.aws4.resourceIcon;resIcon=mxgraph.aws4.api_gateway;" vertex="1" parent="1">
          <mxGeometry x="280" y="800" width="80" height="80" as="geometry" />
        </mxCell>
        <mxCell id="ZTwKh8XUpOnrs2_KcRQO-17" style="edgeStyle=orthogonalEdgeStyle;rounded=0;orthogonalLoop=1;jettySize=auto;html=1;" edge="1" parent="1" source="ZTwKh8XUpOnrs2_KcRQO-15" target="ZTwKh8XUpOnrs2_KcRQO-12">
          <mxGeometry relative="1" as="geometry">
            <Array as="points">
              <mxPoint x="680" y="680" />
              <mxPoint x="680" y="580" />
            </Array>
          </mxGeometry>
        </mxCell>
        <mxCell id="ZTwKh8XUpOnrs2_KcRQO-18" style="edgeStyle=orthogonalEdgeStyle;rounded=0;orthogonalLoop=1;jettySize=auto;html=1;" edge="1" parent="1" source="ZTwKh8XUpOnrs2_KcRQO-15" target="ZTwKh8XUpOnrs2_KcRQO-13">
          <mxGeometry relative="1" as="geometry" />
        </mxCell>
        <mxCell id="ZTwKh8XUpOnrs2_KcRQO-19" style="edgeStyle=orthogonalEdgeStyle;rounded=0;orthogonalLoop=1;jettySize=auto;html=1;" edge="1" parent="1" source="ZTwKh8XUpOnrs2_KcRQO-15" target="ZTwKh8XUpOnrs2_KcRQO-16">
          <mxGeometry relative="1" as="geometry">
            <Array as="points">
              <mxPoint x="680" y="680" />
              <mxPoint x="680" y="780" />
            </Array>
          </mxGeometry>
        </mxCell>
        <mxCell id="ZTwKh8XUpOnrs2_KcRQO-15" value="ML Endpoint" style="sketch=0;outlineConnect=0;fontColor=#232F3E;gradientColor=none;fillColor=#B0084D;strokeColor=none;dashed=0;verticalLabelPosition=bottom;verticalAlign=top;align=center;html=1;fontSize=12;fontStyle=0;aspect=fixed;pointerEvents=1;shape=mxgraph.aws4.endpoint;" vertex="1" parent="1">
          <mxGeometry x="560" y="640" width="80" height="80" as="geometry" />
        </mxCell>
        <mxCell id="ZTwKh8XUpOnrs2_KcRQO-16" value="Server 3" style="sketch=0;outlineConnect=0;fontColor=#232F3E;gradientColor=none;fillColor=#D45B07;strokeColor=none;dashed=0;verticalLabelPosition=bottom;verticalAlign=top;align=center;html=1;fontSize=12;fontStyle=0;pointerEvents=1;shape=mxgraph.aws4.container_2;" vertex="1" parent="1">
          <mxGeometry x="720" y="760" width="80" height="40" as="geometry" />
        </mxCell>
        <mxCell id="ZTwKh8XUpOnrs2_KcRQO-20" value="Blue Deployment (or Canary)" style="swimlane;whiteSpace=wrap;html=1;fillColor=#dae8fc;strokeColor=#6c8ebf;" vertex="1" parent="1">
          <mxGeometry x="520" y="520" width="320" height="320" as="geometry" />
        </mxCell>
        <mxCell id="ZTwKh8XUpOnrs2_KcRQO-21" value="Server 1" style="sketch=0;outlineConnect=0;fontColor=#232F3E;gradientColor=none;fillColor=#D45B07;strokeColor=none;dashed=0;verticalLabelPosition=bottom;verticalAlign=top;align=center;html=1;fontSize=12;fontStyle=0;pointerEvents=1;shape=mxgraph.aws4.container_2;" vertex="1" parent="1">
          <mxGeometry x="720" y="880" width="80" height="40" as="geometry" />
        </mxCell>
        <mxCell id="ZTwKh8XUpOnrs2_KcRQO-22" value="Server 2" style="sketch=0;outlineConnect=0;fontColor=#232F3E;gradientColor=none;fillColor=#D45B07;strokeColor=none;dashed=0;verticalLabelPosition=bottom;verticalAlign=top;align=center;html=1;fontSize=12;fontStyle=0;pointerEvents=1;shape=mxgraph.aws4.container_2;" vertex="1" parent="1">
          <mxGeometry x="720" y="980" width="80" height="40" as="geometry" />
        </mxCell>
        <mxCell id="ZTwKh8XUpOnrs2_KcRQO-23" style="edgeStyle=orthogonalEdgeStyle;rounded=0;orthogonalLoop=1;jettySize=auto;html=1;" edge="1" parent="1" source="ZTwKh8XUpOnrs2_KcRQO-26" target="ZTwKh8XUpOnrs2_KcRQO-21">
          <mxGeometry relative="1" as="geometry">
            <Array as="points">
              <mxPoint x="680" y="1000" />
              <mxPoint x="680" y="900" />
            </Array>
          </mxGeometry>
        </mxCell>
        <mxCell id="ZTwKh8XUpOnrs2_KcRQO-24" style="edgeStyle=orthogonalEdgeStyle;rounded=0;orthogonalLoop=1;jettySize=auto;html=1;" edge="1" parent="1" source="ZTwKh8XUpOnrs2_KcRQO-26" target="ZTwKh8XUpOnrs2_KcRQO-22">
          <mxGeometry relative="1" as="geometry" />
        </mxCell>
        <mxCell id="ZTwKh8XUpOnrs2_KcRQO-25" style="edgeStyle=orthogonalEdgeStyle;rounded=0;orthogonalLoop=1;jettySize=auto;html=1;" edge="1" parent="1" source="ZTwKh8XUpOnrs2_KcRQO-26" target="ZTwKh8XUpOnrs2_KcRQO-27">
          <mxGeometry relative="1" as="geometry">
            <Array as="points">
              <mxPoint x="680" y="1000" />
              <mxPoint x="680" y="1100" />
            </Array>
          </mxGeometry>
        </mxCell>
        <mxCell id="ZTwKh8XUpOnrs2_KcRQO-26" value="ML Endpoint" style="sketch=0;outlineConnect=0;fontColor=#232F3E;gradientColor=none;fillColor=#B0084D;strokeColor=none;dashed=0;verticalLabelPosition=bottom;verticalAlign=top;align=center;html=1;fontSize=12;fontStyle=0;aspect=fixed;pointerEvents=1;shape=mxgraph.aws4.endpoint;" vertex="1" parent="1">
          <mxGeometry x="560" y="960" width="80" height="80" as="geometry" />
        </mxCell>
        <mxCell id="ZTwKh8XUpOnrs2_KcRQO-27" value="Server 3" style="sketch=0;outlineConnect=0;fontColor=#232F3E;gradientColor=none;fillColor=#D45B07;strokeColor=none;dashed=0;verticalLabelPosition=bottom;verticalAlign=top;align=center;html=1;fontSize=12;fontStyle=0;pointerEvents=1;shape=mxgraph.aws4.container_2;" vertex="1" parent="1">
          <mxGeometry x="720" y="1080" width="80" height="40" as="geometry" />
        </mxCell>
        <mxCell id="ZTwKh8XUpOnrs2_KcRQO-28" value="Green Deployment (or Canary)" style="swimlane;whiteSpace=wrap;html=1;fillColor=#d5e8d4;strokeColor=#82b366;" vertex="1" parent="1">
          <mxGeometry x="520" y="840" width="320" height="320" as="geometry" />
        </mxCell>
        <mxCell id="ZTwKh8XUpOnrs2_KcRQO-32" value="Request" style="edgeStyle=orthogonalEdgeStyle;rounded=0;orthogonalLoop=1;jettySize=auto;html=1;entryX=0;entryY=0.5;entryDx=0;entryDy=0;entryPerimeter=0;" edge="1" parent="1" source="ZTwKh8XUpOnrs2_KcRQO-31" target="ZTwKh8XUpOnrs2_KcRQO-14">
          <mxGeometry relative="1" as="geometry" />
        </mxCell>
        <mxCell id="ZTwKh8XUpOnrs2_KcRQO-31" value="" style="sketch=0;html=1;dashed=0;whitespace=wrap;fillColor=#2875E2;strokeColor=#ffffff;points=[[0.005,0.63,0],[0.1,0.2,0],[0.9,0.2,0],[0.5,0,0],[0.995,0.63,0],[0.72,0.99,0],[0.5,1,0],[0.28,0.99,0]];verticalLabelPosition=bottom;align=center;verticalAlign=top;shape=mxgraph.kubernetes.icon;prIcon=user" vertex="1" parent="1">
          <mxGeometry x="80" y="800" width="80" height="80" as="geometry" />
        </mxCell>
        <mxCell id="ZTwKh8XUpOnrs2_KcRQO-33" value="Model Deployment" style="swimlane;whiteSpace=wrap;html=1;" vertex="1" parent="1">
          <mxGeometry x="40" y="440" width="840" height="760" as="geometry" />
        </mxCell>
        <mxCell id="ZTwKh8XUpOnrs2_KcRQO-37" value="deployment 1" style="text;html=1;strokeColor=none;fillColor=none;align=center;verticalAlign=middle;whiteSpace=wrap;rounded=0;" vertex="1" parent="ZTwKh8XUpOnrs2_KcRQO-33">
          <mxGeometry x="520" y="120" width="80" height="40" as="geometry" />
        </mxCell>
        <mxCell id="ZTwKh8XUpOnrs2_KcRQO-38" value="deployment 2" style="text;html=1;strokeColor=none;fillColor=none;align=center;verticalAlign=middle;whiteSpace=wrap;rounded=0;" vertex="1" parent="ZTwKh8XUpOnrs2_KcRQO-33">
          <mxGeometry x="520" y="440" width="80" height="40" as="geometry" />
        </mxCell>
        <mxCell id="ZTwKh8XUpOnrs2_KcRQO-41" style="edgeStyle=orthogonalEdgeStyle;rounded=0;orthogonalLoop=1;jettySize=auto;html=1;entryX=0;entryY=0.5;entryDx=0;entryDy=0;entryPerimeter=0;" edge="1" parent="1" source="ZTwKh8XUpOnrs2_KcRQO-34" target="ZTwKh8XUpOnrs2_KcRQO-11">
          <mxGeometry relative="1" as="geometry" />
        </mxCell>
        <mxCell id="ZTwKh8XUpOnrs2_KcRQO-34" value="Server 1" style="sketch=0;outlineConnect=0;fontColor=#232F3E;gradientColor=none;fillColor=#D45B07;strokeColor=none;dashed=0;verticalLabelPosition=bottom;verticalAlign=top;align=center;html=1;fontSize=12;fontStyle=0;pointerEvents=1;shape=mxgraph.aws4.container_2;" vertex="1" parent="1">
          <mxGeometry x="160" y="1700" width="80" height="40" as="geometry" />
        </mxCell>
        <mxCell id="ZTwKh8XUpOnrs2_KcRQO-42" style="edgeStyle=orthogonalEdgeStyle;rounded=0;orthogonalLoop=1;jettySize=auto;html=1;entryX=0;entryY=0.5;entryDx=0;entryDy=0;entryPerimeter=0;" edge="1" parent="1" source="ZTwKh8XUpOnrs2_KcRQO-35" target="ZTwKh8XUpOnrs2_KcRQO-39">
          <mxGeometry relative="1" as="geometry" />
        </mxCell>
        <mxCell id="ZTwKh8XUpOnrs2_KcRQO-35" value="Server 1" style="sketch=0;outlineConnect=0;fontColor=#232F3E;gradientColor=none;fillColor=#D45B07;strokeColor=none;dashed=0;verticalLabelPosition=bottom;verticalAlign=top;align=center;html=1;fontSize=12;fontStyle=0;pointerEvents=1;shape=mxgraph.aws4.container_2;" vertex="1" parent="1">
          <mxGeometry x="160" y="1820" width="80" height="40" as="geometry" />
        </mxCell>
        <mxCell id="ZTwKh8XUpOnrs2_KcRQO-43" style="edgeStyle=orthogonalEdgeStyle;rounded=0;orthogonalLoop=1;jettySize=auto;html=1;entryX=0;entryY=0.5;entryDx=0;entryDy=0;entryPerimeter=0;" edge="1" parent="1" source="ZTwKh8XUpOnrs2_KcRQO-36" target="ZTwKh8XUpOnrs2_KcRQO-40">
          <mxGeometry relative="1" as="geometry" />
        </mxCell>
        <mxCell id="ZTwKh8XUpOnrs2_KcRQO-36" value="Server 1" style="sketch=0;outlineConnect=0;fontColor=#232F3E;gradientColor=none;fillColor=#D45B07;strokeColor=none;dashed=0;verticalLabelPosition=bottom;verticalAlign=top;align=center;html=1;fontSize=12;fontStyle=0;pointerEvents=1;shape=mxgraph.aws4.container_2;" vertex="1" parent="1">
          <mxGeometry x="160" y="1940" width="80" height="40" as="geometry" />
        </mxCell>
        <mxCell id="ZTwKh8XUpOnrs2_KcRQO-39" value="deployment_1/server_2" style="sketch=0;points=[[0,0,0],[0.25,0,0],[0.5,0,0],[0.75,0,0],[1,0,0],[0,1,0],[0.25,1,0],[0.5,1,0],[0.75,1,0],[1,1,0],[0,0.25,0],[0,0.5,0],[0,0.75,0],[1,0.25,0],[1,0.5,0],[1,0.75,0]];points=[[0,0,0],[0.25,0,0],[0.5,0,0],[0.75,0,0],[1,0,0],[0,1,0],[0.25,1,0],[0.5,1,0],[0.75,1,0],[1,1,0],[0,0.25,0],[0,0.5,0],[0,0.75,0],[1,0.25,0],[1,0.5,0],[1,0.75,0]];outlineConnect=0;gradientDirection=north;fillColor=#dae8fc;strokeColor=#6c8ebf;dashed=0;verticalLabelPosition=bottom;verticalAlign=top;align=center;html=1;fontSize=12;fontStyle=0;aspect=fixed;shape=mxgraph.aws4.resourceIcon;resIcon=mxgraph.aws4.cloudwatch_2;" vertex="1" parent="1">
          <mxGeometry x="320" y="1800" width="80" height="80" as="geometry" />
        </mxCell>
        <mxCell id="ZTwKh8XUpOnrs2_KcRQO-40" value="deployment_1/server_3" style="sketch=0;points=[[0,0,0],[0.25,0,0],[0.5,0,0],[0.75,0,0],[1,0,0],[0,1,0],[0.25,1,0],[0.5,1,0],[0.75,1,0],[1,1,0],[0,0.25,0],[0,0.5,0],[0,0.75,0],[1,0.25,0],[1,0.5,0],[1,0.75,0]];points=[[0,0,0],[0.25,0,0],[0.5,0,0],[0.75,0,0],[1,0,0],[0,1,0],[0.25,1,0],[0.5,1,0],[0.75,1,0],[1,1,0],[0,0.25,0],[0,0.5,0],[0,0.75,0],[1,0.25,0],[1,0.5,0],[1,0.75,0]];outlineConnect=0;gradientDirection=north;fillColor=#dae8fc;strokeColor=#6c8ebf;dashed=0;verticalLabelPosition=bottom;verticalAlign=top;align=center;html=1;fontSize=12;fontStyle=0;aspect=fixed;shape=mxgraph.aws4.resourceIcon;resIcon=mxgraph.aws4.cloudwatch_2;" vertex="1" parent="1">
          <mxGeometry x="320" y="1920" width="80" height="80" as="geometry" />
        </mxCell>
        <mxCell id="ZTwKh8XUpOnrs2_KcRQO-44" value="deployment_1/server_1" style="sketch=0;points=[[0,0,0],[0.25,0,0],[0.5,0,0],[0.75,0,0],[1,0,0],[0,1,0],[0.25,1,0],[0.5,1,0],[0.75,1,0],[1,1,0],[0,0.25,0],[0,0.5,0],[0,0.75,0],[1,0.25,0],[1,0.5,0],[1,0.75,0]];points=[[0,0,0],[0.25,0,0],[0.5,0,0],[0.75,0,0],[1,0,0],[0,1,0],[0.25,1,0],[0.5,1,0],[0.75,1,0],[1,1,0],[0,0.25,0],[0,0.5,0],[0,0.75,0],[1,0.25,0],[1,0.5,0],[1,0.75,0]];outlineConnect=0;gradientDirection=north;fillColor=#dae8fc;strokeColor=#6c8ebf;dashed=0;verticalLabelPosition=bottom;verticalAlign=top;align=center;html=1;fontSize=12;fontStyle=0;aspect=fixed;shape=mxgraph.aws4.resourceIcon;resIcon=mxgraph.aws4.cloudwatch_2;" vertex="1" parent="1">
          <mxGeometry x="280" y="2160" width="80" height="80" as="geometry" />
        </mxCell>
        <mxCell id="ZTwKh8XUpOnrs2_KcRQO-52" style="edgeStyle=orthogonalEdgeStyle;rounded=0;orthogonalLoop=1;jettySize=auto;html=1;entryX=0;entryY=0.5;entryDx=0;entryDy=0;entryPerimeter=0;" edge="1" parent="1" source="ZTwKh8XUpOnrs2_KcRQO-46" target="ZTwKh8XUpOnrs2_KcRQO-44">
          <mxGeometry relative="1" as="geometry" />
        </mxCell>
        <mxCell id="ZTwKh8XUpOnrs2_KcRQO-46" value="Server 1" style="sketch=0;outlineConnect=0;fontColor=#232F3E;gradientColor=none;fillColor=#D45B07;strokeColor=none;dashed=0;verticalLabelPosition=bottom;verticalAlign=top;align=center;html=1;fontSize=12;fontStyle=0;pointerEvents=1;shape=mxgraph.aws4.container_2;" vertex="1" parent="1">
          <mxGeometry x="40" y="2180" width="80" height="40" as="geometry" />
        </mxCell>
        <mxCell id="ZTwKh8XUpOnrs2_KcRQO-48" value="inference transaction" style="dashed=0;outlineConnect=0;html=1;align=center;labelPosition=center;verticalLabelPosition=bottom;verticalAlign=top;shape=mxgraph.weblogos.json_2" vertex="1" parent="1">
          <mxGeometry x="150" y="2150" width="80" height="20" as="geometry" />
        </mxCell>
        <mxCell id="ZTwKh8XUpOnrs2_KcRQO-51" value="&lt;h1&gt;Sample Inference Transaction Log Schema&lt;/h1&gt;&lt;div&gt;&lt;div style=&quot;font-family: &amp;quot;JetBrains Mono&amp;quot;, monospace; font-size: 9.8pt; background-color: rgb(39, 40, 34); color: rgb(248, 248, 242);&quot;&gt;{&lt;br&gt;&lt;span style=&quot;background-color:#273627;&quot;&gt;&lt;/span&gt;&lt;span style=&quot;color:#75715e;background-color:#273627;&quot;&gt;&amp;nbsp; &amp;nbsp; # common&lt;br&gt;&lt;/span&gt;&lt;span style=&quot;color:#e6db74;background-color:#273627;&quot;&gt;&amp;nbsp; &amp;nbsp; &quot;model_name&quot;&lt;/span&gt;&lt;span style=&quot;color:#f92672;background-color:#273627;&quot;&gt;: &lt;/span&gt;&lt;span style=&quot;color:#e6db74;background-color:#273627;&quot;&gt;&quot;document_classification&quot;&lt;/span&gt;&lt;span style=&quot;background-color:#273627;&quot;&gt;,&lt;br&gt;&lt;/span&gt;&lt;span style=&quot;background-color:#273627;&quot;&gt;&lt;/span&gt;&lt;span style=&quot;color:#e6db74;background-color:#273627;&quot;&gt;&amp;nbsp; &amp;nbsp; &quot;environment&quot;&lt;/span&gt;&lt;span style=&quot;color:#f92672;background-color:#273627;&quot;&gt;: &lt;/span&gt;&lt;span style=&quot;color:#e6db74;background-color:#273627;&quot;&gt;&quot;prod&quot;&lt;/span&gt;&lt;span style=&quot;background-color:#273627;&quot;&gt;,&lt;br&gt;&lt;/span&gt;&lt;span style=&quot;background-color:#273627;&quot;&gt;&lt;/span&gt;&lt;span style=&quot;color:#e6db74;background-color:#273627;&quot;&gt;&amp;nbsp; &amp;nbsp; &quot;deployment_id&quot;&lt;/span&gt;&lt;span style=&quot;color:#f92672;background-color:#273627;&quot;&gt;: &lt;/span&gt;&lt;span style=&quot;color:#ae81ff;background-color:#273627;&quot;&gt;1&lt;/span&gt;&lt;span style=&quot;background-color:#273627;&quot;&gt;,&lt;br&gt;&lt;/span&gt;&lt;span style=&quot;background-color:#273627;&quot;&gt;&lt;/span&gt;&lt;span style=&quot;color:#e6db74;background-color:#273627;&quot;&gt;&amp;nbsp; &amp;nbsp; &quot;model_version&quot;&lt;/span&gt;&lt;span style=&quot;color:#f92672;background-color:#273627;&quot;&gt;: &lt;/span&gt;&lt;span style=&quot;color:#ae81ff;background-color:#273627;&quot;&gt;1&lt;/span&gt;&lt;span style=&quot;background-color:#273627;&quot;&gt;,&lt;br&gt;&lt;/span&gt;&lt;span style=&quot;background-color:#273627;&quot;&gt;&lt;/span&gt;&lt;span style=&quot;color:#e6db74;background-color:#273627;&quot;&gt;&amp;nbsp; &amp;nbsp; &quot;server_id&quot;&lt;/span&gt;&lt;span style=&quot;color:#f92672;background-color:#273627;&quot;&gt;: &lt;/span&gt;&lt;span style=&quot;color:#ae81ff;background-color:#273627;&quot;&gt;1&lt;/span&gt;&lt;span style=&quot;background-color:#273627;&quot;&gt;,&lt;br&gt;&lt;/span&gt;&lt;span style=&quot;background-color:#273627;&quot;&gt;&lt;/span&gt;&lt;span style=&quot;color:#75715e;background-color:#273627;&quot;&gt;&amp;nbsp; &amp;nbsp; # all kinds of inference transaction should have these&lt;br&gt;&lt;/span&gt;&lt;span style=&quot;color:#75715e;background-color:#273627;&quot;&gt;&lt;/span&gt;&lt;span style=&quot;color:#e6db74;background-color:#273627;&quot;&gt;&amp;nbsp; &amp;nbsp; &quot;type&quot;&lt;/span&gt;&lt;span style=&quot;color:#f92672;background-color:#273627;&quot;&gt;: &lt;/span&gt;&lt;span style=&quot;color:#e6db74;background-color:#273627;&quot;&gt;&quot;inference_transaction&quot;&lt;/span&gt;&lt;span style=&quot;background-color:#273627;&quot;&gt;,&lt;br&gt;&lt;/span&gt;&lt;span style=&quot;background-color:#273627;&quot;&gt;&lt;/span&gt;&lt;span style=&quot;color:#e6db74;background-color:#273627;&quot;&gt;&amp;nbsp; &amp;nbsp; &quot;request&quot;&lt;/span&gt;&lt;span style=&quot;color:#f92672;background-color:#273627;&quot;&gt;: &lt;/span&gt;&lt;span style=&quot;background-color:#273627;&quot;&gt;{&lt;/span&gt;&lt;span style=&quot;color:#e6db74;background-color:#273627;&quot;&gt;&quot;payload_here&quot;&lt;/span&gt;&lt;span style=&quot;color:#f92672;background-color:#273627;&quot;&gt;: &lt;/span&gt;&lt;span style=&quot;color:#e6db74;background-color:#273627;&quot;&gt;&quot;...&quot;&lt;/span&gt;&lt;span style=&quot;background-color:#273627;&quot;&gt;},&lt;br&gt;&lt;/span&gt;&lt;span style=&quot;background-color:#273627;&quot;&gt;&lt;/span&gt;&lt;span style=&quot;color:#e6db74;background-color:#273627;&quot;&gt;&amp;nbsp; &amp;nbsp; &quot;response&quot;&lt;/span&gt;&lt;span style=&quot;color:#f92672;background-color:#273627;&quot;&gt;: &lt;/span&gt;&lt;span style=&quot;background-color:#273627;&quot;&gt;{&lt;/span&gt;&lt;span style=&quot;color:#e6db74;background-color:#273627;&quot;&gt;&quot;payload_here&quot;&lt;/span&gt;&lt;span style=&quot;color:#f92672;background-color:#273627;&quot;&gt;: &lt;/span&gt;&lt;span style=&quot;color:#e6db74;background-color:#273627;&quot;&gt;&quot;...&quot;&lt;/span&gt;&lt;span style=&quot;background-color:#273627;&quot;&gt;},&lt;br&gt;&lt;/span&gt;&lt;span style=&quot;background-color:#273627;&quot;&gt;&lt;/span&gt;&lt;span style=&quot;color:#e6db74;background-color:#273627;&quot;&gt;&amp;nbsp; &amp;nbsp; &quot;request_size&quot;&lt;/span&gt;&lt;span style=&quot;color:#f92672;background-color:#273627;&quot;&gt;: &lt;/span&gt;&lt;span style=&quot;color:#ae81ff;background-color:#273627;&quot;&gt;4096&lt;/span&gt;&lt;span style=&quot;background-color:#273627;&quot;&gt;,&lt;br&gt;&lt;/span&gt;&lt;span style=&quot;background-color:#273627;&quot;&gt;&lt;/span&gt;&lt;span style=&quot;color:#e6db74;background-color:#273627;&quot;&gt;&amp;nbsp; &amp;nbsp; &quot;response_size&quot;&lt;/span&gt;&lt;span style=&quot;color:#f92672;background-color:#273627;&quot;&gt;: &lt;/span&gt;&lt;span style=&quot;color:#ae81ff;background-color:#273627;&quot;&gt;1024&lt;/span&gt;&lt;span style=&quot;background-color:#273627;&quot;&gt;,&lt;br&gt;&lt;/span&gt;&lt;span style=&quot;background-color:#273627;&quot;&gt;&lt;/span&gt;&lt;span style=&quot;color:#e6db74;background-color:#273627;&quot;&gt;&amp;nbsp; &amp;nbsp; &quot;start_at&quot;&lt;/span&gt;&lt;span style=&quot;color:#f92672;background-color:#273627;&quot;&gt;: &lt;/span&gt;&lt;span style=&quot;color:#e6db74;background-color:#273627;&quot;&gt;&quot;2020-01-01T00:00:00.000Z&quot;&lt;/span&gt;&lt;span style=&quot;background-color:#273627;&quot;&gt;,&lt;br&gt;&lt;/span&gt;&lt;span style=&quot;background-color:#273627;&quot;&gt;&lt;/span&gt;&lt;span style=&quot;color:#e6db74;background-color:#273627;&quot;&gt;&amp;nbsp; &amp;nbsp; &quot;end_at&quot;&lt;/span&gt;&lt;span style=&quot;color:#f92672;background-color:#273627;&quot;&gt;: &lt;/span&gt;&lt;span style=&quot;color:#e6db74;background-color:#273627;&quot;&gt;&quot;2020-01-01T00:00:00.350Z&quot;&lt;/span&gt;&lt;span style=&quot;background-color:#273627;&quot;&gt;,&lt;br&gt;&lt;/span&gt;&lt;span style=&quot;background-color:#273627;&quot;&gt;&lt;/span&gt;&lt;span style=&quot;color:#e6db74;background-color:#273627;&quot;&gt;&amp;nbsp; &amp;nbsp; &quot;status&quot;&lt;/span&gt;&lt;span style=&quot;color:#f92672;background-color:#273627;&quot;&gt;: &lt;/span&gt;&lt;span style=&quot;color:#e6db74;background-color:#273627;&quot;&gt;&quot;succeeded | failed | timeout | ...&quot;&lt;/span&gt;&lt;span style=&quot;background-color:#273627;&quot;&gt;,&lt;br&gt;&lt;/span&gt;&lt;span style=&quot;background-color:#273627;&quot;&gt;&lt;/span&gt;&lt;span style=&quot;color:#e6db74;background-color:#273627;&quot;&gt;&amp;nbsp; &amp;nbsp; &quot;elapse&quot;&lt;/span&gt;&lt;span style=&quot;color:#f92672;background-color:#273627;&quot;&gt;: &lt;/span&gt;&lt;span style=&quot;color:#ae81ff;background-color:#273627;&quot;&gt;350&lt;/span&gt;&lt;span style=&quot;background-color:#273627;&quot;&gt;,&lt;br&gt;&lt;/span&gt;&lt;span style=&quot;background-color:#273627;&quot;&gt;&lt;/span&gt;&lt;span style=&quot;color:#e6db74;background-color:#273627;&quot;&gt;&amp;nbsp; &amp;nbsp; &quot;requester&quot;&lt;/span&gt;&lt;span style=&quot;color:#f92672;background-color:#273627;&quot;&gt;: &lt;/span&gt;&lt;span style=&quot;background-color:#273627;&quot;&gt;{&lt;br&gt;&lt;/span&gt;&lt;span style=&quot;background-color:#273627;&quot;&gt;&lt;/span&gt;&lt;span style=&quot;color:#e6db74;background-color:#273627;&quot;&gt;&amp;nbsp; &amp;nbsp; &amp;nbsp; &amp;nbsp; &quot;principal&quot;&lt;/span&gt;&lt;span style=&quot;color:#f92672;background-color:#273627;&quot;&gt;: &lt;/span&gt;&lt;span style=&quot;color:#e6db74;background-color:#273627;&quot;&gt;&quot;arn:aws:iam::123456789012:role/document_classification_app&quot;&lt;/span&gt;&lt;span style=&quot;background-color:#273627;&quot;&gt;,&lt;br&gt;&lt;/span&gt;&lt;span style=&quot;background-color:#273627;&quot;&gt;&lt;/span&gt;&lt;span style=&quot;color:#e6db74;background-color:#273627;&quot;&gt;&amp;nbsp; &amp;nbsp; &amp;nbsp; &amp;nbsp; &quot;ip&quot;&lt;/span&gt;&lt;span style=&quot;color:#f92672;background-color:#273627;&quot;&gt;: &lt;/span&gt;&lt;span style=&quot;color:#66d9ef;background-color:#273627;font-style:italic;&quot;&gt;None&lt;/span&gt;&lt;span style=&quot;background-color:#273627;&quot;&gt;,&lt;br&gt;&lt;/span&gt;&lt;span style=&quot;background-color:#273627;&quot;&gt;&lt;/span&gt;&lt;span style=&quot;color:#e6db74;background-color:#273627;&quot;&gt;&amp;nbsp; &amp;nbsp; &amp;nbsp; &amp;nbsp; &quot;...&quot;&lt;/span&gt;&lt;span style=&quot;color:#f92672;background-color:#273627;&quot;&gt;: &lt;/span&gt;&lt;span style=&quot;color:#e6db74;background-color:#273627;&quot;&gt;&quot;...&quot;&lt;/span&gt;&lt;span style=&quot;background-color:#273627;&quot;&gt;,&lt;br&gt;&lt;/span&gt;&lt;span style=&quot;background-color:#273627;&quot;&gt;&amp;nbsp; &amp;nbsp; },&lt;br&gt;&lt;/span&gt;&lt;span style=&quot;background-color:#273627;&quot;&gt;&lt;/span&gt;&lt;span style=&quot;color:#75715e;background-color:#273627;&quot;&gt;&amp;nbsp; &amp;nbsp; # for document classification only&lt;br&gt;&lt;/span&gt;&lt;span style=&quot;color:#75715e;background-color:#273627;&quot;&gt;&lt;/span&gt;&lt;span style=&quot;color:#e6db74;background-color:#273627;&quot;&gt;&amp;nbsp; &amp;nbsp; &quot;confidence&quot;&lt;/span&gt;&lt;span style=&quot;color:#f92672;background-color:#273627;&quot;&gt;: &lt;/span&gt;&lt;span style=&quot;color:#ae81ff;background-color:#273627;&quot;&gt;98.05&lt;/span&gt;&lt;span style=&quot;background-color:#273627;&quot;&gt;,&lt;br&gt;&lt;/span&gt;&lt;span style=&quot;background-color:#273627;&quot;&gt;}&lt;/span&gt;&lt;/div&gt;&lt;/div&gt;" style="text;html=1;strokeColor=default;fillColor=none;spacing=5;spacingTop=-20;whiteSpace=wrap;overflow=hidden;rounded=0;" vertex="1" parent="1">
          <mxGeometry x="40" y="2320" width="680" height="480" as="geometry" />
        </mxCell>
        <mxCell id="ZTwKh8XUpOnrs2_KcRQO-53" value="Legend" style="swimlane;whiteSpace=wrap;html=1;" vertex="1" parent="1">
          <mxGeometry x="40" y="1240" width="400" height="240" as="geometry" />
        </mxCell>
        <mxCell id="ZTwKh8XUpOnrs2_KcRQO-54" value="Model Monitoring Measurement Ingestion" style="swimlane;whiteSpace=wrap;html=1;" vertex="1" parent="1">
          <mxGeometry x="40" y="1520" width="480" height="560" as="geometry" />
        </mxCell>
        <mxCell id="5s5FkJOCorYFYgyt9Y-6-1" value="Focus" style="whiteSpace=wrap;html=1;aspect=fixed;fillColor=#f8cecc;strokeColor=#b85450;opacity=30;verticalAlign=top;" vertex="1" parent="1">
          <mxGeometry x="40" y="40" width="80" height="80" as="geometry" />
        </mxCell>
      </root>
    </mxGraphModel>
  </diagram>
  <diagram id="2MRDt9njuiGJrjLgbMov" name="Measruement-Raw-Data-ETL-Pipeline">
    <mxGraphModel dx="1235" dy="764" grid="1" gridSize="10" guides="1" tooltips="1" connect="1" arrows="1" fold="1" page="1" pageScale="1" pageWidth="850" pageHeight="1100" math="0" shadow="0">
      <root>
        <mxCell id="0" />
        <mxCell id="1" parent="0" />
        <mxCell id="9Yyk1ryO9nJWpefUOX1g-1" value="CloudWatch&lt;br&gt;Logs" style="sketch=0;points=[[0,0,0],[0.25,0,0],[0.5,0,0],[0.75,0,0],[1,0,0],[0,1,0],[0.25,1,0],[0.5,1,0],[0.75,1,0],[1,1,0],[0,0.25,0],[0,0.5,0],[0,0.75,0],[1,0.25,0],[1,0.5,0],[1,0.75,0]];points=[[0,0,0],[0.25,0,0],[0.5,0,0],[0.75,0,0],[1,0,0],[0,1,0],[0.25,1,0],[0.5,1,0],[0.75,1,0],[1,1,0],[0,0.25,0],[0,0.5,0],[0,0.75,0],[1,0.25,0],[1,0.5,0],[1,0.75,0]];outlineConnect=0;fontColor=#232F3E;gradientColor=#F34482;gradientDirection=north;fillColor=#BC1356;strokeColor=#ffffff;dashed=0;verticalLabelPosition=bottom;verticalAlign=top;align=center;html=1;fontSize=12;fontStyle=0;aspect=fixed;shape=mxgraph.aws4.resourceIcon;resIcon=mxgraph.aws4.cloudwatch_2;" vertex="1" parent="1">
          <mxGeometry x="80" y="280" width="80" height="80" as="geometry" />
        </mxCell>
        <mxCell id="9Yyk1ryO9nJWpefUOX1g-2" style="edgeStyle=orthogonalEdgeStyle;rounded=0;orthogonalLoop=1;jettySize=auto;html=1;entryX=0;entryY=0.5;entryDx=0;entryDy=0;entryPerimeter=0;exitX=1;exitY=0.25;exitDx=0;exitDy=0;exitPerimeter=0;" edge="1" parent="1" source="9Yyk1ryO9nJWpefUOX1g-1" target="9Yyk1ryO9nJWpefUOX1g-4">
          <mxGeometry relative="1" as="geometry">
            <mxPoint x="240" y="300" as="sourcePoint" />
          </mxGeometry>
        </mxCell>
        <mxCell id="9Yyk1ryO9nJWpefUOX1g-3" style="edgeStyle=orthogonalEdgeStyle;rounded=0;orthogonalLoop=1;jettySize=auto;html=1;exitX=1;exitY=0.75;exitDx=0;exitDy=0;exitPerimeter=0;entryX=0;entryY=0.5;entryDx=0;entryDy=0;entryPerimeter=0;" edge="1" parent="1" source="9Yyk1ryO9nJWpefUOX1g-1" target="9Yyk1ryO9nJWpefUOX1g-5">
          <mxGeometry relative="1" as="geometry">
            <mxPoint x="240" y="340" as="sourcePoint" />
          </mxGeometry>
        </mxCell>
        <mxCell id="9Yyk1ryO9nJWpefUOX1g-6" value="export logs &lt;br&gt;from X to Y" style="edgeStyle=orthogonalEdgeStyle;rounded=0;orthogonalLoop=1;jettySize=auto;html=1;exitX=1;exitY=0.5;exitDx=0;exitDy=0;exitPerimeter=0;entryX=0;entryY=0.5;entryDx=0;entryDy=0;entryPerimeter=0;" edge="1" parent="1" source="9Yyk1ryO9nJWpefUOX1g-7" target="9Yyk1ryO9nJWpefUOX1g-11">
          <mxGeometry relative="1" as="geometry" />
        </mxCell>
        <mxCell id="9Yyk1ryO9nJWpefUOX1g-7" value="CloudWatch&lt;br&gt;Logs" style="sketch=0;points=[[0,0,0],[0.25,0,0],[0.5,0,0],[0.75,0,0],[1,0,0],[0,1,0],[0.25,1,0],[0.5,1,0],[0.75,1,0],[1,1,0],[0,0.25,0],[0,0.5,0],[0,0.75,0],[1,0.25,0],[1,0.5,0],[1,0.75,0]];points=[[0,0,0],[0.25,0,0],[0.5,0,0],[0.75,0,0],[1,0,0],[0,1,0],[0.25,1,0],[0.5,1,0],[0.75,1,0],[1,1,0],[0,0.25,0],[0,0.5,0],[0,0.75,0],[1,0.25,0],[1,0.5,0],[1,0.75,0]];outlineConnect=0;fontColor=#232F3E;gradientColor=#F34482;gradientDirection=north;fillColor=#BC1356;strokeColor=#ffffff;dashed=0;verticalLabelPosition=bottom;verticalAlign=top;align=center;html=1;fontSize=12;fontStyle=0;aspect=fixed;shape=mxgraph.aws4.resourceIcon;resIcon=mxgraph.aws4.cloudwatch_2;" vertex="1" parent="1">
          <mxGeometry x="80" y="960" width="80" height="80" as="geometry" />
        </mxCell>
        <mxCell id="9Yyk1ryO9nJWpefUOX1g-8" value="&lt;h1&gt;CloudWatch Logs to S3&lt;/h1&gt;&lt;p&gt;&lt;/p&gt;&lt;ol&gt;&lt;li&gt;Use the &quot;exporting log data to Amazon S3&quot; feature, setup a cron job to do that.&lt;/li&gt;&lt;li&gt;Use Kinesis Data Firehose to subscript the log group, and set S3 as destination.&lt;/li&gt;&lt;/ol&gt;&lt;div&gt;&lt;h1 style=&quot;border-color: var(--border-color);&quot;&gt;CloudWatch Logs to OpenSearch&lt;/h1&gt;&lt;/div&gt;&lt;div&gt;&lt;ol&gt;&lt;li&gt;Use &quot;Cloudwatch logs subscription filter&quot; feature to send data to Kinesis Data Firehose, and set OpenSearch as destination&lt;/li&gt;&lt;/ol&gt;&lt;div&gt;&lt;h1 style=&quot;border-color: var(--border-color);&quot;&gt;Reference&lt;/h1&gt;&lt;p style=&quot;border-color: var(--border-color);&quot;&gt;&lt;/p&gt;&lt;ul style=&quot;border-color: var(--border-color);&quot;&gt;&lt;li style=&quot;border-color: var(--border-color);&quot;&gt;&lt;a href=&quot;https://docs.aws.amazon.com/AmazonCloudWatch/latest/logs/S3Export.html&quot; style=&quot;border-color: var(--border-color);&quot;&gt;Exporting log data to Amazon S3&lt;/a&gt;&lt;br style=&quot;border-color: var(--border-color);&quot;&gt;&lt;/li&gt;&lt;li style=&quot;border-color: var(--border-color);&quot;&gt;&lt;a href=&quot;https://docs.aws.amazon.com/AmazonCloudWatch/latest/logs/SubscriptionFilters.html#FirehoseExample&quot; style=&quot;border-color: var(--border-color);&quot;&gt;CloudWatch Logs Subscription filters with Amazon Kinesis Data Firehose&lt;/a&gt;&lt;br style=&quot;border-color: var(--border-color);&quot;&gt;&lt;/li&gt;&lt;li style=&quot;border-color: var(--border-color);&quot;&gt;&lt;a href=&quot;https://docs.aws.amazon.com/firehose/latest/dev/create-destination.html#create-destination-s3&quot; style=&quot;border-color: var(--border-color);&quot;&gt;Amazon S3 Destination in Kinesis Data Firehose&lt;/a&gt;&lt;/li&gt;&lt;li style=&quot;border-color: var(--border-color);&quot;&gt;&lt;a href=&quot;https://docs.aws.amazon.com/AmazonCloudWatch/latest/logs/CWL_OpenSearch_Stream.html&quot; style=&quot;border-color: var(--border-color);&quot;&gt;Streaming CloudWatch Logs data to Amazon OpenSearch Service&lt;/a&gt;&lt;/li&gt;&lt;/ul&gt;&lt;/div&gt;&lt;/div&gt;&lt;p&gt;&lt;/p&gt;" style="text;html=1;strokeColor=default;fillColor=none;spacing=5;spacingTop=-20;whiteSpace=wrap;overflow=hidden;rounded=0;" vertex="1" parent="1">
          <mxGeometry x="40" y="560" width="480" height="320" as="geometry" />
        </mxCell>
        <mxCell id="9Yyk1ryO9nJWpefUOX1g-9" value="call API" style="rounded=0;orthogonalLoop=1;jettySize=auto;html=1;exitX=0.5;exitY=0;exitDx=0;exitDy=0;exitPerimeter=0;" edge="1" parent="1" source="9Yyk1ryO9nJWpefUOX1g-10" target="9Yyk1ryO9nJWpefUOX1g-7">
          <mxGeometry relative="1" as="geometry" />
        </mxCell>
        <mxCell id="9Yyk1ryO9nJWpefUOX1g-13" value="CloudWatch Logs to S3 Method 1" style="swimlane;whiteSpace=wrap;html=1;" vertex="1" parent="1">
          <mxGeometry x="40" y="920" width="480" height="320" as="geometry" />
        </mxCell>
        <mxCell id="9Yyk1ryO9nJWpefUOX1g-11" value="S3&lt;br&gt;Measurement &lt;br&gt;Raw Data Store" style="sketch=0;points=[[0,0,0],[0.25,0,0],[0.5,0,0],[0.75,0,0],[1,0,0],[0,1,0],[0.25,1,0],[0.5,1,0],[0.75,1,0],[1,1,0],[0,0.25,0],[0,0.5,0],[0,0.75,0],[1,0.25,0],[1,0.5,0],[1,0.75,0]];outlineConnect=0;fontColor=#232F3E;gradientColor=#60A337;gradientDirection=north;fillColor=#277116;strokeColor=#ffffff;dashed=0;verticalLabelPosition=bottom;verticalAlign=top;align=center;html=1;fontSize=12;fontStyle=0;aspect=fixed;shape=mxgraph.aws4.resourceIcon;resIcon=mxgraph.aws4.s3;" vertex="1" parent="9Yyk1ryO9nJWpefUOX1g-13">
          <mxGeometry x="360" y="40" width="80" height="80" as="geometry" />
        </mxCell>
        <mxCell id="9Yyk1ryO9nJWpefUOX1g-10" value="Lambda&lt;br&gt;Cron Job" style="sketch=0;points=[[0,0,0],[0.25,0,0],[0.5,0,0],[0.75,0,0],[1,0,0],[0,1,0],[0.25,1,0],[0.5,1,0],[0.75,1,0],[1,1,0],[0,0.25,0],[0,0.5,0],[0,0.75,0],[1,0.25,0],[1,0.5,0],[1,0.75,0]];outlineConnect=0;fontColor=#232F3E;gradientColor=#F78E04;gradientDirection=north;fillColor=#D05C17;strokeColor=#ffffff;dashed=0;verticalLabelPosition=bottom;verticalAlign=top;align=center;html=1;fontSize=12;fontStyle=0;aspect=fixed;shape=mxgraph.aws4.resourceIcon;resIcon=mxgraph.aws4.lambda;" vertex="1" parent="9Yyk1ryO9nJWpefUOX1g-13">
          <mxGeometry x="200" y="200" width="80" height="80" as="geometry" />
        </mxCell>
        <mxCell id="9Yyk1ryO9nJWpefUOX1g-12" value="" style="html=1;verticalLabelPosition=bottom;align=center;labelBackgroundColor=#ffffff;verticalAlign=top;strokeWidth=2;strokeColor=#0080F0;shadow=0;dashed=0;shape=mxgraph.ios7.icons.alarm_clock;" vertex="1" parent="9Yyk1ryO9nJWpefUOX1g-13">
          <mxGeometry x="160" y="200" width="27" height="30" as="geometry" />
        </mxCell>
        <mxCell id="9Yyk1ryO9nJWpefUOX1g-19" value="CloudWatch Logs to S3 Method 2" style="swimlane;whiteSpace=wrap;html=1;" vertex="1" parent="1">
          <mxGeometry x="560" y="920" width="480" height="320" as="geometry" />
        </mxCell>
        <mxCell id="9Yyk1ryO9nJWpefUOX1g-15" value="CloudWatch&lt;br&gt;Logs" style="sketch=0;points=[[0,0,0],[0.25,0,0],[0.5,0,0],[0.75,0,0],[1,0,0],[0,1,0],[0.25,1,0],[0.5,1,0],[0.75,1,0],[1,1,0],[0,0.25,0],[0,0.5,0],[0,0.75,0],[1,0.25,0],[1,0.5,0],[1,0.75,0]];points=[[0,0,0],[0.25,0,0],[0.5,0,0],[0.75,0,0],[1,0,0],[0,1,0],[0.25,1,0],[0.5,1,0],[0.75,1,0],[1,1,0],[0,0.25,0],[0,0.5,0],[0,0.75,0],[1,0.25,0],[1,0.5,0],[1,0.75,0]];outlineConnect=0;fontColor=#232F3E;gradientColor=#F34482;gradientDirection=north;fillColor=#BC1356;strokeColor=#ffffff;dashed=0;verticalLabelPosition=bottom;verticalAlign=top;align=center;html=1;fontSize=12;fontStyle=0;aspect=fixed;shape=mxgraph.aws4.resourceIcon;resIcon=mxgraph.aws4.cloudwatch_2;" vertex="1" parent="9Yyk1ryO9nJWpefUOX1g-19">
          <mxGeometry x="40" y="120" width="80" height="80" as="geometry" />
        </mxCell>
        <mxCell id="9Yyk1ryO9nJWpefUOX1g-17" value="Kinesis Firehose" style="sketch=0;points=[[0,0,0],[0.25,0,0],[0.5,0,0],[0.75,0,0],[1,0,0],[0,1,0],[0.25,1,0],[0.5,1,0],[0.75,1,0],[1,1,0],[0,0.25,0],[0,0.5,0],[0,0.75,0],[1,0.25,0],[1,0.5,0],[1,0.75,0]];outlineConnect=0;fontColor=#232F3E;gradientColor=#945DF2;gradientDirection=north;fillColor=#5A30B5;strokeColor=#ffffff;dashed=0;verticalLabelPosition=bottom;verticalAlign=top;align=center;html=1;fontSize=12;fontStyle=0;aspect=fixed;shape=mxgraph.aws4.resourceIcon;resIcon=mxgraph.aws4.kinesis_data_firehose;" vertex="1" parent="9Yyk1ryO9nJWpefUOX1g-19">
          <mxGeometry x="200" y="120" width="80" height="80" as="geometry" />
        </mxCell>
        <mxCell id="9Yyk1ryO9nJWpefUOX1g-14" style="edgeStyle=orthogonalEdgeStyle;rounded=0;orthogonalLoop=1;jettySize=auto;html=1;exitX=1;exitY=0.5;exitDx=0;exitDy=0;exitPerimeter=0;entryX=0;entryY=0.5;entryDx=0;entryDy=0;entryPerimeter=0;" edge="1" parent="9Yyk1ryO9nJWpefUOX1g-19" source="9Yyk1ryO9nJWpefUOX1g-15" target="9Yyk1ryO9nJWpefUOX1g-17">
          <mxGeometry relative="1" as="geometry" />
        </mxCell>
        <mxCell id="9Yyk1ryO9nJWpefUOX1g-18" value="S3 - Measurement &lt;br&gt;Raw Data Store" style="sketch=0;points=[[0,0,0],[0.25,0,0],[0.5,0,0],[0.75,0,0],[1,0,0],[0,1,0],[0.25,1,0],[0.5,1,0],[0.75,1,0],[1,1,0],[0,0.25,0],[0,0.5,0],[0,0.75,0],[1,0.25,0],[1,0.5,0],[1,0.75,0]];outlineConnect=0;fontColor=#232F3E;gradientColor=#60A337;gradientDirection=north;fillColor=#277116;strokeColor=#ffffff;dashed=0;verticalLabelPosition=bottom;verticalAlign=top;align=center;html=1;fontSize=12;fontStyle=0;aspect=fixed;shape=mxgraph.aws4.resourceIcon;resIcon=mxgraph.aws4.s3;" vertex="1" parent="9Yyk1ryO9nJWpefUOX1g-19">
          <mxGeometry x="360" y="120" width="80" height="80" as="geometry" />
        </mxCell>
        <mxCell id="9Yyk1ryO9nJWpefUOX1g-16" style="edgeStyle=orthogonalEdgeStyle;rounded=0;orthogonalLoop=1;jettySize=auto;html=1;exitX=1;exitY=0.5;exitDx=0;exitDy=0;exitPerimeter=0;entryX=0;entryY=0.5;entryDx=0;entryDy=0;entryPerimeter=0;" edge="1" parent="9Yyk1ryO9nJWpefUOX1g-19" source="9Yyk1ryO9nJWpefUOX1g-17" target="9Yyk1ryO9nJWpefUOX1g-18">
          <mxGeometry relative="1" as="geometry" />
        </mxCell>
        <mxCell id="9Yyk1ryO9nJWpefUOX1g-20" style="edgeStyle=orthogonalEdgeStyle;rounded=0;orthogonalLoop=1;jettySize=auto;html=1;exitX=1;exitY=0.5;exitDx=0;exitDy=0;exitPerimeter=0;entryX=0;entryY=0.5;entryDx=0;entryDy=0;entryPerimeter=0;" edge="1" parent="1" source="9Yyk1ryO9nJWpefUOX1g-21" target="9Yyk1ryO9nJWpefUOX1g-23">
          <mxGeometry relative="1" as="geometry" />
        </mxCell>
        <mxCell id="9Yyk1ryO9nJWpefUOX1g-21" value="CloudWatch&lt;br&gt;Logs" style="sketch=0;points=[[0,0,0],[0.25,0,0],[0.5,0,0],[0.75,0,0],[1,0,0],[0,1,0],[0.25,1,0],[0.5,1,0],[0.75,1,0],[1,1,0],[0,0.25,0],[0,0.5,0],[0,0.75,0],[1,0.25,0],[1,0.5,0],[1,0.75,0]];points=[[0,0,0],[0.25,0,0],[0.5,0,0],[0.75,0,0],[1,0,0],[0,1,0],[0.25,1,0],[0.5,1,0],[0.75,1,0],[1,1,0],[0,0.25,0],[0,0.5,0],[0,0.75,0],[1,0.25,0],[1,0.5,0],[1,0.75,0]];outlineConnect=0;fontColor=#232F3E;gradientColor=#F34482;gradientDirection=north;fillColor=#BC1356;strokeColor=#ffffff;dashed=0;verticalLabelPosition=bottom;verticalAlign=top;align=center;html=1;fontSize=12;fontStyle=0;aspect=fixed;shape=mxgraph.aws4.resourceIcon;resIcon=mxgraph.aws4.cloudwatch_2;" vertex="1" parent="1">
          <mxGeometry x="80" y="1400" width="80" height="80" as="geometry" />
        </mxCell>
        <mxCell id="9Yyk1ryO9nJWpefUOX1g-24" value="CloudWatch Logs to OpenSearch" style="swimlane;whiteSpace=wrap;html=1;" vertex="1" parent="1">
          <mxGeometry x="40" y="1280" width="480" height="320" as="geometry" />
        </mxCell>
        <mxCell id="9Yyk1ryO9nJWpefUOX1g-25" value="OpenSearch&lt;br&gt;Measurement&lt;br&gt;Raw Data Store" style="sketch=0;points=[[0,0,0],[0.25,0,0],[0.5,0,0],[0.75,0,0],[1,0,0],[0,1,0],[0.25,1,0],[0.5,1,0],[0.75,1,0],[1,1,0],[0,0.25,0],[0,0.5,0],[0,0.75,0],[1,0.25,0],[1,0.5,0],[1,0.75,0]];outlineConnect=0;fontColor=#232F3E;gradientColor=#945DF2;gradientDirection=north;fillColor=#5A30B5;strokeColor=#ffffff;dashed=0;verticalLabelPosition=bottom;verticalAlign=top;align=center;html=1;fontSize=12;fontStyle=0;aspect=fixed;shape=mxgraph.aws4.resourceIcon;resIcon=mxgraph.aws4.elasticsearch_service;" vertex="1" parent="9Yyk1ryO9nJWpefUOX1g-24">
          <mxGeometry x="360" y="120" width="80" height="80" as="geometry" />
        </mxCell>
        <mxCell id="9Yyk1ryO9nJWpefUOX1g-23" value="Kinesis Firehose" style="sketch=0;points=[[0,0,0],[0.25,0,0],[0.5,0,0],[0.75,0,0],[1,0,0],[0,1,0],[0.25,1,0],[0.5,1,0],[0.75,1,0],[1,1,0],[0,0.25,0],[0,0.5,0],[0,0.75,0],[1,0.25,0],[1,0.5,0],[1,0.75,0]];outlineConnect=0;fontColor=#232F3E;gradientColor=#945DF2;gradientDirection=north;fillColor=#5A30B5;strokeColor=#ffffff;dashed=0;verticalLabelPosition=bottom;verticalAlign=top;align=center;html=1;fontSize=12;fontStyle=0;aspect=fixed;shape=mxgraph.aws4.resourceIcon;resIcon=mxgraph.aws4.kinesis_data_firehose;" vertex="1" parent="9Yyk1ryO9nJWpefUOX1g-24">
          <mxGeometry x="200" y="120" width="80" height="80" as="geometry" />
        </mxCell>
        <mxCell id="9Yyk1ryO9nJWpefUOX1g-22" style="edgeStyle=orthogonalEdgeStyle;rounded=0;orthogonalLoop=1;jettySize=auto;html=1;exitX=1;exitY=0.5;exitDx=0;exitDy=0;exitPerimeter=0;entryX=0;entryY=0.5;entryDx=0;entryDy=0;entryPerimeter=0;" edge="1" parent="9Yyk1ryO9nJWpefUOX1g-24" source="9Yyk1ryO9nJWpefUOX1g-23" target="9Yyk1ryO9nJWpefUOX1g-25">
          <mxGeometry relative="1" as="geometry">
            <mxPoint x="280" y="160" as="targetPoint" />
          </mxGeometry>
        </mxCell>
        <mxCell id="9Yyk1ryO9nJWpefUOX1g-26" value="Measurement Raw Data ETL Pipeline" style="swimlane;whiteSpace=wrap;html=1;" vertex="1" parent="1">
          <mxGeometry x="40" y="160" width="480" height="360" as="geometry" />
        </mxCell>
        <mxCell id="9Yyk1ryO9nJWpefUOX1g-5" value="OpenSearch&lt;br&gt;Measurement&lt;br&gt;Raw Data Store&lt;br&gt;(Optional)" style="sketch=0;points=[[0,0,0],[0.25,0,0],[0.5,0,0],[0.75,0,0],[1,0,0],[0,1,0],[0.25,1,0],[0.5,1,0],[0.75,1,0],[1,1,0],[0,0.25,0],[0,0.5,0],[0,0.75,0],[1,0.25,0],[1,0.5,0],[1,0.75,0]];outlineConnect=0;fontColor=#232F3E;gradientColor=#945DF2;gradientDirection=north;fillColor=#5A30B5;strokeColor=#ffffff;dashed=0;verticalLabelPosition=bottom;verticalAlign=top;align=center;html=1;fontSize=12;fontStyle=0;aspect=fixed;shape=mxgraph.aws4.resourceIcon;resIcon=mxgraph.aws4.elasticsearch_service;" vertex="1" parent="9Yyk1ryO9nJWpefUOX1g-26">
          <mxGeometry x="360" y="200" width="80" height="80" as="geometry" />
        </mxCell>
        <mxCell id="9Yyk1ryO9nJWpefUOX1g-4" value="S3&lt;br&gt;Measurement &lt;br&gt;Raw Data Store" style="sketch=0;points=[[0,0,0],[0.25,0,0],[0.5,0,0],[0.75,0,0],[1,0,0],[0,1,0],[0.25,1,0],[0.5,1,0],[0.75,1,0],[1,1,0],[0,0.25,0],[0,0.5,0],[0,0.75,0],[1,0.25,0],[1,0.5,0],[1,0.75,0]];outlineConnect=0;fontColor=#232F3E;gradientColor=#60A337;gradientDirection=north;fillColor=#277116;strokeColor=#ffffff;dashed=0;verticalLabelPosition=bottom;verticalAlign=top;align=center;html=1;fontSize=12;fontStyle=0;aspect=fixed;shape=mxgraph.aws4.resourceIcon;resIcon=mxgraph.aws4.s3;" vertex="1" parent="9Yyk1ryO9nJWpefUOX1g-26">
          <mxGeometry x="360" y="40" width="80" height="80" as="geometry" />
        </mxCell>
        <mxCell id="K1gEJ78lS24eYZ63bISn-1" value="Focus" style="whiteSpace=wrap;html=1;aspect=fixed;fillColor=#f8cecc;strokeColor=#b85450;opacity=30;verticalAlign=top;" vertex="1" parent="1">
          <mxGeometry x="40" y="40" width="80" height="80" as="geometry" />
        </mxCell>
        <mxCell id="clOPGImC1BV3em-G5ijN-1" value="CloudWatch&lt;br&gt;Logs" style="sketch=0;points=[[0,0,0],[0.25,0,0],[0.5,0,0],[0.75,0,0],[1,0,0],[0,1,0],[0.25,1,0],[0.5,1,0],[0.75,1,0],[1,1,0],[0,0.25,0],[0,0.5,0],[0,0.75,0],[1,0.25,0],[1,0.5,0],[1,0.75,0]];points=[[0,0,0],[0.25,0,0],[0.5,0,0],[0.75,0,0],[1,0,0],[0,1,0],[0.25,1,0],[0.5,1,0],[0.75,1,0],[1,1,0],[0,0.25,0],[0,0.5,0],[0,0.75,0],[1,0.25,0],[1,0.5,0],[1,0.75,0]];outlineConnect=0;fontColor=#232F3E;gradientColor=#F34482;gradientDirection=north;fillColor=#BC1356;strokeColor=#ffffff;dashed=0;verticalLabelPosition=bottom;verticalAlign=top;align=center;html=1;fontSize=12;fontStyle=0;aspect=fixed;shape=mxgraph.aws4.resourceIcon;resIcon=mxgraph.aws4.cloudwatch_2;" vertex="1" parent="1">
          <mxGeometry x="400" y="1720" width="80" height="80" as="geometry" />
        </mxCell>
        <mxCell id="clOPGImC1BV3em-G5ijN-9" style="edgeStyle=orthogonalEdgeStyle;rounded=0;orthogonalLoop=1;jettySize=auto;html=1;entryX=0;entryY=0.5;entryDx=0;entryDy=0;entryPerimeter=0;" edge="1" parent="1" source="clOPGImC1BV3em-G5ijN-2" target="clOPGImC1BV3em-G5ijN-1">
          <mxGeometry relative="1" as="geometry" />
        </mxCell>
        <mxCell id="clOPGImC1BV3em-G5ijN-2" value="CloudWatch&lt;br&gt;Logs Insights" style="sketch=0;outlineConnect=0;fontColor=#232F3E;gradientColor=none;fillColor=#B0084D;strokeColor=none;dashed=0;verticalLabelPosition=bottom;verticalAlign=top;align=center;html=1;fontSize=12;fontStyle=0;pointerEvents=1;shape=mxgraph.aws4.cloudwatch_metrics_insights;" vertex="1" parent="1">
          <mxGeometry x="240" y="1720" width="80" height="80" as="geometry" />
        </mxCell>
        <mxCell id="clOPGImC1BV3em-G5ijN-8" style="edgeStyle=orthogonalEdgeStyle;rounded=0;orthogonalLoop=1;jettySize=auto;html=1;" edge="1" parent="1" source="clOPGImC1BV3em-G5ijN-6" target="clOPGImC1BV3em-G5ijN-2">
          <mxGeometry relative="1" as="geometry" />
        </mxCell>
        <mxCell id="clOPGImC1BV3em-G5ijN-6" value="User" style="html=1;verticalLabelPosition=bottom;align=center;labelBackgroundColor=#ffffff;verticalAlign=top;strokeWidth=2;strokeColor=#0080F0;shadow=0;dashed=0;shape=mxgraph.ios7.icons.user;" vertex="1" parent="1">
          <mxGeometry x="80" y="1720" width="80" height="80" as="geometry" />
        </mxCell>
        <mxCell id="clOPGImC1BV3em-G5ijN-10" value="&lt;h1&gt;Reference&lt;/h1&gt;&lt;p&gt;&lt;/p&gt;&lt;ul&gt;&lt;li&gt;&lt;a href=&quot;https://docs.aws.amazon.com/AmazonCloudWatch/latest/logs/AnalyzingLogData.html&quot;&gt;Analyzing log data with CloudWatch Logs Insights&lt;/a&gt;&lt;br&gt;&lt;/li&gt;&lt;li&gt;&lt;a href=&quot;https://docs.aws.amazon.com/AmazonCloudWatch/latest/logs/CWL_Insights-Visualizing-Log-Data.html&quot;&gt;Visualize log data in graphs&lt;/a&gt;&lt;br&gt;&lt;/li&gt;&lt;li&gt;&lt;a href=&quot;https://docs.aws.amazon.com/AmazonCloudWatch/latest/logs/CWL_Insights-Saving-Queries.html&quot;&gt;Save and re-run CloudWatch Logs Insights queries&lt;/a&gt;&lt;br&gt;&lt;/li&gt;&lt;/ul&gt;&lt;p&gt;&lt;/p&gt;" style="text;html=1;strokeColor=default;fillColor=none;spacing=5;spacingTop=-20;whiteSpace=wrap;overflow=hidden;rounded=0;" vertex="1" parent="1">
          <mxGeometry x="120" y="1880" width="320" height="120" as="geometry" />
        </mxCell>
        <mxCell id="clOPGImC1BV3em-G5ijN-11" value="Analyze Recent Measurements" style="swimlane;whiteSpace=wrap;html=1;" vertex="1" parent="1">
          <mxGeometry x="40" y="1640" width="480" height="400" as="geometry" />
        </mxCell>
        <mxCell id="clOPGImC1BV3em-G5ijN-19" style="edgeStyle=orthogonalEdgeStyle;rounded=0;orthogonalLoop=1;jettySize=auto;html=1;entryX=0;entryY=0.5;entryDx=0;entryDy=0;entryPerimeter=0;" edge="1" parent="1" source="clOPGImC1BV3em-G5ijN-14" target="clOPGImC1BV3em-G5ijN-16">
          <mxGeometry relative="1" as="geometry" />
        </mxCell>
        <mxCell id="clOPGImC1BV3em-G5ijN-14" value="User" style="html=1;verticalLabelPosition=bottom;align=center;labelBackgroundColor=#ffffff;verticalAlign=top;strokeWidth=2;strokeColor=#0080F0;shadow=0;dashed=0;shape=mxgraph.ios7.icons.user;" vertex="1" parent="1">
          <mxGeometry x="80" y="2160" width="80" height="80" as="geometry" />
        </mxCell>
        <mxCell id="clOPGImC1BV3em-G5ijN-15" value="S3&lt;br style=&quot;border-color: var(--border-color);&quot;&gt;Measurement&lt;br style=&quot;border-color: var(--border-color);&quot;&gt;Raw Data Store" style="sketch=0;points=[[0,0,0],[0.25,0,0],[0.5,0,0],[0.75,0,0],[1,0,0],[0,1,0],[0.25,1,0],[0.5,1,0],[0.75,1,0],[1,1,0],[0,0.25,0],[0,0.5,0],[0,0.75,0],[1,0.25,0],[1,0.5,0],[1,0.75,0]];outlineConnect=0;fontColor=#232F3E;gradientColor=#60A337;gradientDirection=north;fillColor=#277116;strokeColor=#ffffff;dashed=0;verticalLabelPosition=bottom;verticalAlign=top;align=center;html=1;fontSize=12;fontStyle=0;aspect=fixed;shape=mxgraph.aws4.resourceIcon;resIcon=mxgraph.aws4.s3;" vertex="1" parent="1">
          <mxGeometry x="400" y="2160" width="80" height="80" as="geometry" />
        </mxCell>
        <mxCell id="clOPGImC1BV3em-G5ijN-20" style="edgeStyle=orthogonalEdgeStyle;rounded=0;orthogonalLoop=1;jettySize=auto;html=1;exitX=1;exitY=0.5;exitDx=0;exitDy=0;exitPerimeter=0;entryX=0;entryY=0.5;entryDx=0;entryDy=0;entryPerimeter=0;" edge="1" parent="1" source="clOPGImC1BV3em-G5ijN-16" target="clOPGImC1BV3em-G5ijN-15">
          <mxGeometry relative="1" as="geometry" />
        </mxCell>
        <mxCell id="clOPGImC1BV3em-G5ijN-16" value="Athena" style="sketch=0;points=[[0,0,0],[0.25,0,0],[0.5,0,0],[0.75,0,0],[1,0,0],[0,1,0],[0.25,1,0],[0.5,1,0],[0.75,1,0],[1,1,0],[0,0.25,0],[0,0.5,0],[0,0.75,0],[1,0.25,0],[1,0.5,0],[1,0.75,0]];outlineConnect=0;fontColor=#232F3E;gradientColor=#945DF2;gradientDirection=north;fillColor=#5A30B5;strokeColor=#ffffff;dashed=0;verticalLabelPosition=bottom;verticalAlign=top;align=center;html=1;fontSize=12;fontStyle=0;aspect=fixed;shape=mxgraph.aws4.resourceIcon;resIcon=mxgraph.aws4.athena;" vertex="1" parent="1">
          <mxGeometry x="240" y="2160" width="80" height="80" as="geometry" />
        </mxCell>
        <mxCell id="clOPGImC1BV3em-G5ijN-17" value="&lt;h1&gt;Reference&lt;/h1&gt;&lt;p&gt;&lt;/p&gt;&lt;ul&gt;&lt;li&gt;&lt;a href=&quot;https://docs.aws.amazon.com/athena/latest/ug/what-is.html&quot;&gt;What is Amazon Athena?&lt;/a&gt;&lt;br&gt;&lt;/li&gt;&lt;li&gt;&lt;a href=&quot;https://docs.aws.amazon.com/athena/latest/ug/saved-queries.html&quot;&gt;Using Saved Queries&lt;/a&gt;&lt;/li&gt;&lt;/ul&gt;&lt;p&gt;&lt;/p&gt;" style="text;html=1;strokeColor=default;fillColor=none;spacing=5;spacingTop=-20;whiteSpace=wrap;overflow=hidden;rounded=0;" vertex="1" parent="1">
          <mxGeometry x="120" y="2320" width="320" height="120" as="geometry" />
        </mxCell>
        <mxCell id="clOPGImC1BV3em-G5ijN-18" value="Query Full History of Structured Measurements" style="swimlane;whiteSpace=wrap;html=1;" vertex="1" parent="1">
          <mxGeometry x="40" y="2080" width="480" height="400" as="geometry" />
        </mxCell>
        <mxCell id="clOPGImC1BV3em-G5ijN-31" style="edgeStyle=orthogonalEdgeStyle;rounded=0;orthogonalLoop=1;jettySize=auto;html=1;entryX=0;entryY=0.5;entryDx=0;entryDy=0;entryPerimeter=0;" edge="1" parent="1" source="clOPGImC1BV3em-G5ijN-22" target="clOPGImC1BV3em-G5ijN-30">
          <mxGeometry relative="1" as="geometry" />
        </mxCell>
        <mxCell id="clOPGImC1BV3em-G5ijN-33" style="edgeStyle=orthogonalEdgeStyle;rounded=0;orthogonalLoop=1;jettySize=auto;html=1;entryX=0;entryY=0.5;entryDx=0;entryDy=0;" edge="1" parent="1" source="clOPGImC1BV3em-G5ijN-22" target="clOPGImC1BV3em-G5ijN-29">
          <mxGeometry relative="1" as="geometry" />
        </mxCell>
        <mxCell id="clOPGImC1BV3em-G5ijN-22" value="User" style="html=1;verticalLabelPosition=bottom;align=center;labelBackgroundColor=#ffffff;verticalAlign=top;strokeWidth=2;strokeColor=#0080F0;shadow=0;dashed=0;shape=mxgraph.ios7.icons.user;" vertex="1" parent="1">
          <mxGeometry x="80" y="2600" width="80" height="80" as="geometry" />
        </mxCell>
        <mxCell id="clOPGImC1BV3em-G5ijN-27" value="Query Full History of Measurements" style="swimlane;whiteSpace=wrap;html=1;" vertex="1" parent="1">
          <mxGeometry x="40" y="2520" width="480" height="440" as="geometry" />
        </mxCell>
        <mxCell id="clOPGImC1BV3em-G5ijN-28" value="OpenSearch&lt;br&gt;Measurement&lt;br&gt;Raw Data Store" style="sketch=0;points=[[0,0,0],[0.25,0,0],[0.5,0,0],[0.75,0,0],[1,0,0],[0,1,0],[0.25,1,0],[0.5,1,0],[0.75,1,0],[1,1,0],[0,0.25,0],[0,0.5,0],[0,0.75,0],[1,0.25,0],[1,0.5,0],[1,0.75,0]];outlineConnect=0;fontColor=#232F3E;gradientColor=#945DF2;gradientDirection=north;fillColor=#5A30B5;strokeColor=#ffffff;dashed=0;verticalLabelPosition=bottom;verticalAlign=top;align=center;html=1;fontSize=12;fontStyle=0;aspect=fixed;shape=mxgraph.aws4.resourceIcon;resIcon=mxgraph.aws4.elasticsearch_service;" vertex="1" parent="clOPGImC1BV3em-G5ijN-27">
          <mxGeometry x="360" y="80" width="80" height="80" as="geometry" />
        </mxCell>
        <mxCell id="clOPGImC1BV3em-G5ijN-34" style="edgeStyle=orthogonalEdgeStyle;rounded=0;orthogonalLoop=1;jettySize=auto;html=1;exitX=1;exitY=0.5;exitDx=0;exitDy=0;entryX=0;entryY=0.5;entryDx=0;entryDy=0;entryPerimeter=0;" edge="1" parent="clOPGImC1BV3em-G5ijN-27" source="clOPGImC1BV3em-G5ijN-29" target="clOPGImC1BV3em-G5ijN-28">
          <mxGeometry relative="1" as="geometry" />
        </mxCell>
        <mxCell id="clOPGImC1BV3em-G5ijN-29" value="OpenSearch &#xa;Dashboard" style="shape=image;verticalLabelPosition=bottom;labelBackgroundColor=default;verticalAlign=top;aspect=fixed;imageAspect=0;image=data:image/svg+xml,PHN2ZyB4bWxucz0iaHR0cDovL3d3dy53My5vcmcvMjAwMC9zdmciIHZpZXdCb3g9IjAgMCAzODQgMzg0Ij48cGF0aCBkPSJNMjQzLjQ5IDE3My4wMmMtMTkuOC0yMC41NC00NS42NC0yNS43MS03MS43Ni0zMy4yMS0xOC40OS01LjMyLTM2Ljc3LTEzLjUyLTM1LjUzLTM2LjU0cTEuNTUtMjguOTQgMjguNzgtMzcuOCA0LjY3LTEuNTIgMTQuNTItMS4yOSAyMS45Ni40OSA0MC45NSAxMS40YzQ5IDI4LjE0IDY3LjI2IDkwLjIxIDM2LjQ4IDEzOS4yNHEtLjg4IDEuNC0uNi0uMjMgNC4wOS0yNC4wMi0xMi44NC00MS41N3oiIGZpbGw9IiMwMDNiNWMiLz48cGF0aCBmaWxsPSIjMDA1ZWI4IiBkPSJNMTYzLjc0IDI3MS43M2MtMzkuMDEgMy42LTc2LjA5LTI0LjQ2LTkxLjMzLTU4LjczLTEzLjQtMzAuMTUtMTAuNTUtNjQgNi43NS05Mi4wM3EuNzgtMS4yNy41My4yLTQuMjQgMjQuMzkgMTMuMDUgNDIuMDggMTAuMzYgMTAuNiAyMi4yNSAxNi41MWMyMS43MyAxMC44MiA0OC41OSAxMy44OCA2OC4xIDIzLjg1IDE1LjQgNy44NiAxOS41MiAyMi4zOCAxNS42MSAzOC41LTQuMDEgMTYuNTctMTcuOTcgMjguMDUtMzQuOTYgMjkuNjJ6bTE1Ni4xOC0xMDIuMTFjLTEuMzggODMuNDgtNjkuOTIgMTUwLjctMTUzLjE3IDE1MC4zNC05LjIxLS4wNC0xMS45OC0xMy4yOS0zLjgzLTE3LjFxMS45MS0uOSA2LjI5LS45N2M3Mi45Ni0xLjI3IDEzMC44NS01OS42IDEzMi42Ny0xMzIuMnEuMTEtNC4zNy42Mi01LjgxYzIuNjktNy41MyAxMy41NS03LjggMTYuNy0uNDJxLjggMS44Ny43MiA2LjE2eiIvPjwvc3ZnPg==;" vertex="1" parent="clOPGImC1BV3em-G5ijN-27">
          <mxGeometry x="200" y="160" width="80" height="80" as="geometry" />
        </mxCell>
        <mxCell id="clOPGImC1BV3em-G5ijN-32" style="edgeStyle=orthogonalEdgeStyle;rounded=0;orthogonalLoop=1;jettySize=auto;html=1;exitX=1;exitY=0.5;exitDx=0;exitDy=0;exitPerimeter=0;entryX=0;entryY=0.5;entryDx=0;entryDy=0;entryPerimeter=0;" edge="1" parent="clOPGImC1BV3em-G5ijN-27" source="clOPGImC1BV3em-G5ijN-30" target="clOPGImC1BV3em-G5ijN-28">
          <mxGeometry relative="1" as="geometry" />
        </mxCell>
        <mxCell id="clOPGImC1BV3em-G5ijN-30" value="Athena" style="sketch=0;points=[[0,0,0],[0.25,0,0],[0.5,0,0],[0.75,0,0],[1,0,0],[0,1,0],[0.25,1,0],[0.5,1,0],[0.75,1,0],[1,1,0],[0,0.25,0],[0,0.5,0],[0,0.75,0],[1,0.25,0],[1,0.5,0],[1,0.75,0]];outlineConnect=0;fontColor=#232F3E;gradientColor=#945DF2;gradientDirection=north;fillColor=#5A30B5;strokeColor=#ffffff;dashed=0;verticalLabelPosition=bottom;verticalAlign=top;align=center;html=1;fontSize=12;fontStyle=0;aspect=fixed;shape=mxgraph.aws4.resourceIcon;resIcon=mxgraph.aws4.athena;" vertex="1" parent="clOPGImC1BV3em-G5ijN-27">
          <mxGeometry x="200" y="40" width="80" height="80" as="geometry" />
        </mxCell>
        <mxCell id="clOPGImC1BV3em-G5ijN-26" value="&lt;h1&gt;Reference&lt;/h1&gt;&lt;ul&gt;&lt;li&gt;&lt;a href=&quot;https://docs.aws.amazon.com/opensearch-service/latest/developerguide/dashboards.html&quot;&gt;Using OpenSearch Dashboards&lt;/a&gt;&lt;br&gt;&lt;/li&gt;&lt;li&gt;&lt;a href=&quot;https://docs.aws.amazon.com/athena/latest/ug/connectors-opensearch.html&quot;&gt;Amazon Athena OpenSearch Connector&lt;/a&gt;&lt;/li&gt;&lt;/ul&gt;&lt;p&gt;&lt;/p&gt;" style="text;html=1;strokeColor=default;fillColor=none;spacing=5;spacingTop=-20;whiteSpace=wrap;overflow=hidden;rounded=0;" vertex="1" parent="clOPGImC1BV3em-G5ijN-27">
          <mxGeometry x="80" y="280" width="320" height="120" as="geometry" />
        </mxCell>
        <mxCell id="EObrCD5Z1UO1vuILP9be-1" value="s3://${lob-bucket}/prefix/${model_name}/${deployment_id}/{server_id}/${measurement_type}/${year}/${month}/${day}/${hour}" style="sketch=0;points=[[0,0,0],[0.25,0,0],[0.5,0,0],[0.75,0,0],[1,0,0],[0,1,0],[0.25,1,0],[0.5,1,0],[0.75,1,0],[1,1,0],[0,0.25,0],[0,0.5,0],[0,0.75,0],[1,0.25,0],[1,0.5,0],[1,0.75,0]];outlineConnect=0;fontColor=#232F3E;gradientColor=#60A337;gradientDirection=north;fillColor=#277116;strokeColor=#ffffff;dashed=0;verticalLabelPosition=bottom;verticalAlign=top;align=center;html=1;fontSize=12;fontStyle=0;aspect=fixed;shape=mxgraph.aws4.resourceIcon;resIcon=mxgraph.aws4.s3;" vertex="1" parent="1">
          <mxGeometry x="880" y="200" width="80" height="80" as="geometry" />
        </mxCell>
        <mxCell id="0CCTkPYyuxgk7y5dERfi-2" value="per LOB OpenSearch&lt;br&gt;per Model index vs all Model share the same index&lt;br&gt;per measurement type index" style="sketch=0;points=[[0,0,0],[0.25,0,0],[0.5,0,0],[0.75,0,0],[1,0,0],[0,1,0],[0.25,1,0],[0.5,1,0],[0.75,1,0],[1,1,0],[0,0.25,0],[0,0.5,0],[0,0.75,0],[1,0.25,0],[1,0.5,0],[1,0.75,0]];outlineConnect=0;fontColor=#232F3E;gradientColor=#945DF2;gradientDirection=north;fillColor=#5A30B5;strokeColor=#ffffff;dashed=0;verticalLabelPosition=bottom;verticalAlign=top;align=center;html=1;fontSize=12;fontStyle=0;aspect=fixed;shape=mxgraph.aws4.resourceIcon;resIcon=mxgraph.aws4.elasticsearch_service;" vertex="1" parent="1">
          <mxGeometry x="880" y="360" width="80" height="80" as="geometry" />
        </mxCell>
        <mxCell id="0CCTkPYyuxgk7y5dERfi-3" value="Data Partition Strategy" style="swimlane;whiteSpace=wrap;html=1;" vertex="1" parent="1">
          <mxGeometry x="560" y="160" width="720" height="360" as="geometry" />
        </mxCell>
        <mxCell id="EwkXTvZ1vQnhu5s132nU-2" value="&lt;h1&gt;Find slow inference transactions&lt;/h1&gt;&lt;div&gt;&lt;div style=&quot;background-color: rgb(39, 40, 34); color: rgb(248, 248, 242); font-family: &amp;quot;JetBrains Mono&amp;quot;, monospace; font-size: 9.8pt;&quot;&gt;&lt;span style=&quot;color:#75715e;background-color:#273627;&quot;&gt;# a sample query to find slow inference transactions&lt;br&gt;&lt;/span&gt;&lt;span style=&quot;color:#75715e;background-color:#273627;&quot;&gt;# log group = /abc_corp/claim/doc_classification&lt;br&gt;&lt;/span&gt;&lt;span style=&quot;color:#75715e;background-color:#273627;&quot;&gt;# time range = (24 hours ago, now)&lt;br&gt;&lt;/span&gt;&lt;span style=&quot;background-color:#273627;&quot;&gt;fields &lt;/span&gt;&lt;span style=&quot;color:#f92672;background-color:#273627;&quot;&gt;@&lt;/span&gt;&lt;span style=&quot;background-color:#273627;&quot;&gt;timestamp, &lt;/span&gt;&lt;span style=&quot;color:#f92672;background-color:#273627;&quot;&gt;@&lt;/span&gt;&lt;span style=&quot;background-color:#273627;&quot;&gt;message, deployment_id, model_version, server_id, elapse&lt;br&gt;&lt;/span&gt;&lt;span style=&quot;color:#f92672;background-color:#273627;&quot;&gt;| &lt;/span&gt;&lt;span style=&quot;background-color:#273627;&quot;&gt;filter elapse &lt;/span&gt;&lt;span style=&quot;color:#f92672;background-color:#273627;&quot;&gt;&amp;gt;= &lt;/span&gt;&lt;span style=&quot;color:#ae81ff;background-color:#273627;&quot;&gt;3000&lt;br&gt;&lt;/span&gt;&lt;span style=&quot;color:#f92672;background-color:#273627;&quot;&gt;| &lt;/span&gt;&lt;span style=&quot;background-color:#273627;&quot;&gt;sort &lt;/span&gt;&lt;span style=&quot;color:#f92672;background-color:#273627;&quot;&gt;@&lt;/span&gt;&lt;span style=&quot;background-color:#273627;&quot;&gt;timestamp desc&lt;br&gt;&lt;/span&gt;&lt;span style=&quot;color:#f92672;background-color:#273627;&quot;&gt;| &lt;/span&gt;&lt;span style=&quot;background-color:#273627;&quot;&gt;limit &lt;/span&gt;&lt;span style=&quot;color:#ae81ff;background-color:#273627;&quot;&gt;20&lt;/span&gt;&lt;/div&gt;&lt;/div&gt;" style="text;html=1;strokeColor=default;fillColor=none;spacing=5;spacingTop=-20;whiteSpace=wrap;overflow=hidden;rounded=0;" vertex="1" parent="1">
          <mxGeometry x="560" y="1640" width="640" height="400" as="geometry" />
        </mxCell>
        <mxCell id="EwkXTvZ1vQnhu5s132nU-3" value="&lt;h1&gt;Find slow inference transactions&lt;/h1&gt;&lt;div style=&quot;background-color: rgb(39, 40, 34); color: rgb(248, 248, 242); font-family: &amp;quot;JetBrains Mono&amp;quot;, monospace; font-size: 9.8pt;&quot;&gt;-- A sample query to find slow inference transactions&lt;br&gt;-- model = /abc_corp/claim/doc_classification&lt;br&gt;-- time range = (24 hours ago, now)&lt;br&gt;SELECT&lt;br&gt;&amp;nbsp; &amp;nbsp; *,&lt;br&gt;&amp;nbsp; &amp;nbsp; json_extract(message, &#39;$.elapse&#39;) AS elapse&lt;br&gt;FROM model_monitoring_logs t&lt;br&gt;WHERE&lt;br&gt;&amp;nbsp; &amp;nbsp; t.model_name = &#39;document_classification&#39;&lt;br&gt;&amp;nbsp; &amp;nbsp; AND t.measurement_type = &#39;inference_transaction&#39;&lt;br&gt;&amp;nbsp; &amp;nbsp; AND t.start_at &amp;gt;= &#39;2023-01-01T00:00:00.000Z&#39; &lt;br&gt;&amp;nbsp; &amp;nbsp; AND t.start_at &amp;lt;= &#39;2023-01-02T00:00:00.000Z&#39;&lt;br&gt;&amp;nbsp; &amp;nbsp; AND t.elapse &amp;gt;= 3000&lt;br&gt;ORDER BY t.start_at DESC&lt;br&gt;LIMIT 20;&lt;/div&gt;" style="text;html=1;strokeColor=default;fillColor=none;spacing=5;spacingTop=-20;whiteSpace=wrap;overflow=hidden;rounded=0;" vertex="1" parent="1">
          <mxGeometry x="560" y="2080" width="640" height="400" as="geometry" />
        </mxCell>
        <mxCell id="EwkXTvZ1vQnhu5s132nU-4" value="&lt;h1&gt;Find slow inference transactions&lt;/h1&gt;&lt;div style=&quot;background-color: rgb(39, 40, 34); color: rgb(248, 248, 242); font-family: &amp;quot;JetBrains Mono&amp;quot;, monospace; font-size: 9.8pt;&quot;&gt;&lt;span style=&quot;color:#75715e;background-color:#273627;&quot;&gt;# index = inference_transaction&lt;br&gt;&lt;/span&gt;&lt;span style=&quot;background-color:#273627;&quot;&gt;{&lt;br&gt;&lt;/span&gt;&lt;span style=&quot;background-color:#273627;&quot;&gt;&lt;/span&gt;&lt;span style=&quot;color:#e6db74;background-color:#273627;&quot;&gt;&amp;nbsp; &amp;nbsp; &quot;size&quot;&lt;/span&gt;&lt;span style=&quot;color:#f92672;background-color:#273627;&quot;&gt;: &lt;/span&gt;&lt;span style=&quot;color:#ae81ff;background-color:#273627;&quot;&gt;20&lt;/span&gt;&lt;span style=&quot;background-color:#273627;&quot;&gt;,&lt;br&gt;&lt;/span&gt;&lt;span style=&quot;background-color:#273627;&quot;&gt;&lt;/span&gt;&lt;span style=&quot;color:#e6db74;background-color:#273627;&quot;&gt;&amp;nbsp; &amp;nbsp; &quot;query&quot;&lt;/span&gt;&lt;span style=&quot;color:#f92672;background-color:#273627;&quot;&gt;: &lt;/span&gt;&lt;span style=&quot;background-color:#273627;&quot;&gt;{&lt;br&gt;&lt;/span&gt;&lt;span style=&quot;background-color:#273627;&quot;&gt;&lt;/span&gt;&lt;span style=&quot;color:#e6db74;background-color:#273627;&quot;&gt;&amp;nbsp; &amp;nbsp; &amp;nbsp; &amp;nbsp; &quot;term&quot;&lt;/span&gt;&lt;span style=&quot;color:#f92672;background-color:#273627;&quot;&gt;: &lt;/span&gt;&lt;span style=&quot;background-color:#273627;&quot;&gt;{&lt;br&gt;&lt;/span&gt;&lt;span style=&quot;background-color:#273627;&quot;&gt;&lt;/span&gt;&lt;span style=&quot;color:#e6db74;background-color:#273627;&quot;&gt;&amp;nbsp; &amp;nbsp; &amp;nbsp; &amp;nbsp; &amp;nbsp; &amp;nbsp; &quot;model_name&quot;&lt;/span&gt;&lt;span style=&quot;color:#f92672;background-color:#273627;&quot;&gt;: &lt;/span&gt;&lt;span style=&quot;color:#e6db74;background-color:#273627;&quot;&gt;&quot;document_classification&quot;&lt;/span&gt;&lt;span style=&quot;background-color:#273627;&quot;&gt;,&lt;br&gt;&lt;/span&gt;&lt;span style=&quot;background-color:#273627;&quot;&gt;&amp;nbsp; &amp;nbsp; &amp;nbsp; &amp;nbsp; },&lt;br&gt;&lt;/span&gt;&lt;span style=&quot;background-color:#273627;&quot;&gt;&lt;/span&gt;&lt;span style=&quot;color:#e6db74;background-color:#273627;&quot;&gt;&amp;nbsp; &amp;nbsp; &amp;nbsp; &amp;nbsp; &quot;range&quot;&lt;/span&gt;&lt;span style=&quot;color:#f92672;background-color:#273627;&quot;&gt;: &lt;/span&gt;&lt;span style=&quot;background-color:#273627;&quot;&gt;{&lt;br&gt;&lt;/span&gt;&lt;span style=&quot;background-color:#273627;&quot;&gt;&lt;/span&gt;&lt;span style=&quot;color:#e6db74;background-color:#273627;&quot;&gt;&amp;nbsp; &amp;nbsp; &amp;nbsp; &amp;nbsp; &amp;nbsp; &amp;nbsp; &quot;start_at&quot;&lt;/span&gt;&lt;span style=&quot;color:#f92672;background-color:#273627;&quot;&gt;: &lt;/span&gt;&lt;span style=&quot;background-color:#273627;&quot;&gt;{&lt;br&gt;&lt;/span&gt;&lt;span style=&quot;background-color:#273627;&quot;&gt;&lt;/span&gt;&lt;span style=&quot;color:#e6db74;background-color:#273627;&quot;&gt;&amp;nbsp; &amp;nbsp; &amp;nbsp; &amp;nbsp; &amp;nbsp; &amp;nbsp; &amp;nbsp; &amp;nbsp; &quot;gte&quot;&lt;/span&gt;&lt;span style=&quot;color:#f92672;background-color:#273627;&quot;&gt;: &lt;/span&gt;&lt;span style=&quot;color:#e6db74;background-color:#273627;&quot;&gt;&quot;2023-01-01T00:00:00.000Z&quot;&lt;/span&gt;&lt;span style=&quot;background-color:#273627;&quot;&gt;,&lt;br&gt;&lt;/span&gt;&lt;span style=&quot;background-color:#273627;&quot;&gt;&lt;/span&gt;&lt;span style=&quot;color:#e6db74;background-color:#273627;&quot;&gt;&amp;nbsp; &amp;nbsp; &amp;nbsp; &amp;nbsp; &amp;nbsp; &amp;nbsp; &amp;nbsp; &amp;nbsp; &quot;lte&quot;&lt;/span&gt;&lt;span style=&quot;color:#f92672;background-color:#273627;&quot;&gt;: &lt;/span&gt;&lt;span style=&quot;color:#e6db74;background-color:#273627;&quot;&gt;&quot;2023-01-02T00:00:00.000Z&quot;&lt;/span&gt;&lt;span style=&quot;background-color:#273627;&quot;&gt;,&lt;br&gt;&lt;/span&gt;&lt;span style=&quot;background-color:#273627;&quot;&gt;&amp;nbsp; &amp;nbsp; &amp;nbsp; &amp;nbsp; &amp;nbsp; &amp;nbsp; },&lt;br&gt;&lt;/span&gt;&lt;span style=&quot;background-color:#273627;&quot;&gt;&lt;/span&gt;&lt;span style=&quot;color:#e6db74;background-color:#273627;&quot;&gt;&amp;nbsp; &amp;nbsp; &amp;nbsp; &amp;nbsp; &amp;nbsp; &amp;nbsp; &quot;elapsed&quot;&lt;/span&gt;&lt;span style=&quot;color:#f92672;background-color:#273627;&quot;&gt;: &lt;/span&gt;&lt;span style=&quot;background-color:#273627;&quot;&gt;{&lt;br&gt;&lt;/span&gt;&lt;span style=&quot;background-color:#273627;&quot;&gt;&lt;/span&gt;&lt;span style=&quot;color:#e6db74;background-color:#273627;&quot;&gt;&amp;nbsp; &amp;nbsp; &amp;nbsp; &amp;nbsp; &amp;nbsp; &amp;nbsp; &amp;nbsp; &amp;nbsp; &quot;gte&quot;&lt;/span&gt;&lt;span style=&quot;color:#f92672;background-color:#273627;&quot;&gt;: &lt;/span&gt;&lt;span style=&quot;color:#ae81ff;background-color:#273627;&quot;&gt;3000&lt;/span&gt;&lt;span style=&quot;background-color:#273627;&quot;&gt;,&lt;br&gt;&lt;/span&gt;&lt;span style=&quot;background-color:#273627;&quot;&gt;&amp;nbsp; &amp;nbsp; &amp;nbsp; &amp;nbsp; &amp;nbsp; &amp;nbsp; },&lt;br&gt;&lt;/span&gt;&lt;span style=&quot;background-color:#273627;&quot;&gt;&amp;nbsp; &amp;nbsp; &amp;nbsp; &amp;nbsp; },&lt;br&gt;&lt;/span&gt;&lt;span style=&quot;background-color:#273627;&quot;&gt;&amp;nbsp; &amp;nbsp; },&lt;br&gt;&lt;/span&gt;&lt;span style=&quot;background-color:#273627;&quot;&gt;&lt;/span&gt;&lt;span style=&quot;color:#e6db74;background-color:#273627;&quot;&gt;&amp;nbsp; &amp;nbsp; &quot;sort&quot;&lt;/span&gt;&lt;span style=&quot;color:#f92672;background-color:#273627;&quot;&gt;: &lt;/span&gt;&lt;span style=&quot;background-color:#273627;&quot;&gt;[&lt;br&gt;&lt;/span&gt;&lt;span style=&quot;background-color:#273627;&quot;&gt;&amp;nbsp; &amp;nbsp; &amp;nbsp; &amp;nbsp; {&lt;/span&gt;&lt;span style=&quot;color:#e6db74;background-color:#273627;&quot;&gt;&quot;start_at&quot;&lt;/span&gt;&lt;span style=&quot;color:#f92672;background-color:#273627;&quot;&gt;: &lt;/span&gt;&lt;span style=&quot;background-color:#273627;&quot;&gt;{&lt;/span&gt;&lt;span style=&quot;color:#e6db74;background-color:#273627;&quot;&gt;&quot;order&quot;&lt;/span&gt;&lt;span style=&quot;color:#f92672;background-color:#273627;&quot;&gt;: &lt;/span&gt;&lt;span style=&quot;color:#e6db74;background-color:#273627;&quot;&gt;&quot;desc&quot;&lt;/span&gt;&lt;span style=&quot;background-color:#273627;&quot;&gt;}},&lt;br&gt;&lt;/span&gt;&lt;span style=&quot;background-color:#273627;&quot;&gt;&amp;nbsp; &amp;nbsp; ],&lt;br&gt;&lt;/span&gt;&lt;span style=&quot;background-color:#273627;&quot;&gt;}&lt;/span&gt;&lt;/div&gt;" style="text;html=1;strokeColor=default;fillColor=none;spacing=5;spacingTop=-20;whiteSpace=wrap;overflow=hidden;rounded=0;" vertex="1" parent="1">
          <mxGeometry x="560" y="2520" width="640" height="440" as="geometry" />
        </mxCell>
        <mxCell id="qifzBvbYpxfWyHjM7D3L-6" style="edgeStyle=orthogonalEdgeStyle;rounded=0;orthogonalLoop=1;jettySize=auto;html=1;" edge="1" parent="1" source="qifzBvbYpxfWyHjM7D3L-1" target="qifzBvbYpxfWyHjM7D3L-2">
          <mxGeometry relative="1" as="geometry" />
        </mxCell>
        <mxCell id="qifzBvbYpxfWyHjM7D3L-7" style="edgeStyle=orthogonalEdgeStyle;rounded=0;orthogonalLoop=1;jettySize=auto;html=1;" edge="1" parent="1" source="qifzBvbYpxfWyHjM7D3L-1" target="qifzBvbYpxfWyHjM7D3L-4">
          <mxGeometry relative="1" as="geometry" />
        </mxCell>
        <mxCell id="qifzBvbYpxfWyHjM7D3L-1" value="Custom &lt;br&gt;CloudWatch Metrics" style="sketch=0;outlineConnect=0;fontColor=#232F3E;gradientColor=none;fillColor=#B0084D;strokeColor=none;dashed=0;verticalLabelPosition=bottom;verticalAlign=top;align=center;html=1;fontSize=12;fontStyle=0;pointerEvents=1;shape=mxgraph.aws4.cloudwatch_metrics_insights;" vertex="1" parent="1">
          <mxGeometry x="240" y="3120" width="80" height="80" as="geometry" />
        </mxCell>
        <mxCell id="qifzBvbYpxfWyHjM7D3L-2" value="CloudWatch&lt;br&gt;Dashboard" style="image;html=1;points=[];align=center;fontSize=12;image=img/lib/azure2/other/Azure_Monitor_Dashboard.svg;" vertex="1" parent="1">
          <mxGeometry x="400" y="3040" width="80" height="80" as="geometry" />
        </mxCell>
        <mxCell id="qifzBvbYpxfWyHjM7D3L-5" style="edgeStyle=orthogonalEdgeStyle;rounded=0;orthogonalLoop=1;jettySize=auto;html=1;exitX=1;exitY=0.5;exitDx=0;exitDy=0;exitPerimeter=0;" edge="1" parent="1" source="qifzBvbYpxfWyHjM7D3L-3" target="qifzBvbYpxfWyHjM7D3L-1">
          <mxGeometry relative="1" as="geometry" />
        </mxCell>
        <mxCell id="qifzBvbYpxfWyHjM7D3L-3" value="CloudWatch&lt;br&gt;Logs" style="sketch=0;points=[[0,0,0],[0.25,0,0],[0.5,0,0],[0.75,0,0],[1,0,0],[0,1,0],[0.25,1,0],[0.5,1,0],[0.75,1,0],[1,1,0],[0,0.25,0],[0,0.5,0],[0,0.75,0],[1,0.25,0],[1,0.5,0],[1,0.75,0]];points=[[0,0,0],[0.25,0,0],[0.5,0,0],[0.75,0,0],[1,0,0],[0,1,0],[0.25,1,0],[0.5,1,0],[0.75,1,0],[1,1,0],[0,0.25,0],[0,0.5,0],[0,0.75,0],[1,0.25,0],[1,0.5,0],[1,0.75,0]];outlineConnect=0;fontColor=#232F3E;gradientColor=#F34482;gradientDirection=north;fillColor=#BC1356;strokeColor=#ffffff;dashed=0;verticalLabelPosition=bottom;verticalAlign=top;align=center;html=1;fontSize=12;fontStyle=0;aspect=fixed;shape=mxgraph.aws4.resourceIcon;resIcon=mxgraph.aws4.cloudwatch_2;" vertex="1" parent="1">
          <mxGeometry x="80" y="3120" width="80" height="80" as="geometry" />
        </mxCell>
        <mxCell id="qifzBvbYpxfWyHjM7D3L-11" style="edgeStyle=orthogonalEdgeStyle;rounded=0;orthogonalLoop=1;jettySize=auto;html=1;entryX=0;entryY=0.5;entryDx=0;entryDy=0;entryPerimeter=0;" edge="1" parent="1" source="qifzBvbYpxfWyHjM7D3L-4" target="qifzBvbYpxfWyHjM7D3L-8">
          <mxGeometry relative="1" as="geometry" />
        </mxCell>
        <mxCell id="qifzBvbYpxfWyHjM7D3L-4" value="Custom &lt;br&gt;CloudWatch Alarm" style="sketch=0;outlineConnect=0;fontColor=#232F3E;gradientColor=none;fillColor=#B0084D;strokeColor=none;dashed=0;verticalLabelPosition=bottom;verticalAlign=top;align=center;html=1;fontSize=12;fontStyle=0;aspect=fixed;pointerEvents=1;shape=mxgraph.aws4.alarm;" vertex="1" parent="1">
          <mxGeometry x="400" y="3200" width="80" height="80" as="geometry" />
        </mxCell>
        <mxCell id="qifzBvbYpxfWyHjM7D3L-14" style="edgeStyle=orthogonalEdgeStyle;rounded=0;orthogonalLoop=1;jettySize=auto;html=1;exitX=1;exitY=0.5;exitDx=0;exitDy=0;exitPerimeter=0;entryX=0;entryY=0.5;entryDx=0;entryDy=0;entryPerimeter=0;" edge="1" parent="1" source="qifzBvbYpxfWyHjM7D3L-8" target="qifzBvbYpxfWyHjM7D3L-9">
          <mxGeometry relative="1" as="geometry" />
        </mxCell>
        <mxCell id="qifzBvbYpxfWyHjM7D3L-15" style="edgeStyle=orthogonalEdgeStyle;rounded=0;orthogonalLoop=1;jettySize=auto;html=1;exitX=1;exitY=0.5;exitDx=0;exitDy=0;exitPerimeter=0;" edge="1" parent="1" source="qifzBvbYpxfWyHjM7D3L-8" target="qifzBvbYpxfWyHjM7D3L-10">
          <mxGeometry relative="1" as="geometry" />
        </mxCell>
        <mxCell id="qifzBvbYpxfWyHjM7D3L-18" style="edgeStyle=orthogonalEdgeStyle;rounded=0;orthogonalLoop=1;jettySize=auto;html=1;exitX=1;exitY=0.5;exitDx=0;exitDy=0;exitPerimeter=0;entryX=0;entryY=0.5;entryDx=0;entryDy=0;entryPerimeter=0;" edge="1" parent="1" source="qifzBvbYpxfWyHjM7D3L-8" target="qifzBvbYpxfWyHjM7D3L-16">
          <mxGeometry relative="1" as="geometry">
            <mxPoint x="750" y="3400" as="targetPoint" />
            <Array as="points">
              <mxPoint x="720" y="3240" />
              <mxPoint x="720" y="3400" />
            </Array>
          </mxGeometry>
        </mxCell>
        <mxCell id="qifzBvbYpxfWyHjM7D3L-8" value="SNS Topic" style="sketch=0;points=[[0,0,0],[0.25,0,0],[0.5,0,0],[0.75,0,0],[1,0,0],[0,1,0],[0.25,1,0],[0.5,1,0],[0.75,1,0],[1,1,0],[0,0.25,0],[0,0.5,0],[0,0.75,0],[1,0.25,0],[1,0.5,0],[1,0.75,0]];outlineConnect=0;fontColor=#232F3E;gradientColor=#FF4F8B;gradientDirection=north;fillColor=#BC1356;strokeColor=#ffffff;dashed=0;verticalLabelPosition=bottom;verticalAlign=top;align=center;html=1;fontSize=12;fontStyle=0;aspect=fixed;shape=mxgraph.aws4.resourceIcon;resIcon=mxgraph.aws4.sns;" vertex="1" parent="1">
          <mxGeometry x="600" y="3200" width="80" height="80" as="geometry" />
        </mxCell>
        <mxCell id="qifzBvbYpxfWyHjM7D3L-12" value="Simple Event Detection" style="swimlane;whiteSpace=wrap;html=1;" vertex="1" parent="1">
          <mxGeometry x="40" y="3000" width="480" height="360" as="geometry" />
        </mxCell>
        <mxCell id="qifzBvbYpxfWyHjM7D3L-13" value="Event Reaction" style="swimlane;whiteSpace=wrap;html=1;" vertex="1" parent="1">
          <mxGeometry x="560" y="3000" width="320" height="520" as="geometry" />
        </mxCell>
        <mxCell id="qifzBvbYpxfWyHjM7D3L-9" value="Lambda" style="sketch=0;points=[[0,0,0],[0.25,0,0],[0.5,0,0],[0.75,0,0],[1,0,0],[0,1,0],[0.25,1,0],[0.5,1,0],[0.75,1,0],[1,1,0],[0,0.25,0],[0,0.5,0],[0,0.75,0],[1,0.25,0],[1,0.5,0],[1,0.75,0]];outlineConnect=0;fontColor=#232F3E;gradientColor=#F78E04;gradientDirection=north;fillColor=#D05C17;strokeColor=#ffffff;dashed=0;verticalLabelPosition=bottom;verticalAlign=top;align=center;html=1;fontSize=12;fontStyle=0;aspect=fixed;shape=mxgraph.aws4.resourceIcon;resIcon=mxgraph.aws4.lambda;" vertex="1" parent="qifzBvbYpxfWyHjM7D3L-13">
          <mxGeometry x="200" y="40" width="80" height="80" as="geometry" />
        </mxCell>
        <mxCell id="qifzBvbYpxfWyHjM7D3L-10" value="StepFunctions" style="sketch=0;points=[[0,0,0],[0.25,0,0],[0.5,0,0],[0.75,0,0],[1,0,0],[0,1,0],[0.25,1,0],[0.5,1,0],[0.75,1,0],[1,1,0],[0,0.25,0],[0,0.5,0],[0,0.75,0],[1,0.25,0],[1,0.5,0],[1,0.75,0]];outlineConnect=0;fontColor=#232F3E;gradientColor=#FF4F8B;gradientDirection=north;fillColor=#BC1356;strokeColor=#ffffff;dashed=0;verticalLabelPosition=bottom;verticalAlign=top;align=center;html=1;fontSize=12;fontStyle=0;aspect=fixed;shape=mxgraph.aws4.resourceIcon;resIcon=mxgraph.aws4.step_functions;" vertex="1" parent="qifzBvbYpxfWyHjM7D3L-13">
          <mxGeometry x="200" y="200" width="80" height="80" as="geometry" />
        </mxCell>
        <mxCell id="qifzBvbYpxfWyHjM7D3L-16" value="" style="html=1;verticalLabelPosition=bottom;align=center;labelBackgroundColor=#ffffff;verticalAlign=top;strokeWidth=2;strokeColor=#0080F0;shadow=0;dashed=0;shape=mxgraph.ios7.icons.mail;" vertex="1" parent="qifzBvbYpxfWyHjM7D3L-13">
          <mxGeometry x="200" y="390" width="40" height="20" as="geometry" />
        </mxCell>
        <mxCell id="qifzBvbYpxfWyHjM7D3L-17" value="" style="html=1;verticalLabelPosition=bottom;align=center;labelBackgroundColor=#ffffff;verticalAlign=top;strokeWidth=2;strokeColor=#0080F0;shadow=0;dashed=0;shape=mxgraph.ios7.icons.smartphone;" vertex="1" parent="qifzBvbYpxfWyHjM7D3L-13">
          <mxGeometry x="260" y="380" width="20" height="40" as="geometry" />
        </mxCell>
      </root>
    </mxGraphModel>
  </diagram>
  <diagram id="OBXIaR2f3znuHAbUxAc0" name="Model Deployment">
    <mxGraphModel dx="1235" dy="764" grid="1" gridSize="10" guides="1" tooltips="1" connect="1" arrows="1" fold="1" page="1" pageScale="1" pageWidth="850" pageHeight="1100" math="0" shadow="0">
      <root>
        <mxCell id="0" />
        <mxCell id="1" parent="0" />
        <mxCell id="5sFFl2yhaNKVVV5Xz47B-2" value="&lt;h1&gt;Deployment Strategy&lt;/h1&gt;&lt;p&gt;&lt;/p&gt;&lt;ul&gt;&lt;li&gt;Self Hosted&lt;/li&gt;&lt;ul&gt;&lt;li&gt;Container based&lt;/li&gt;&lt;ul&gt;&lt;li&gt;On-prem&lt;/li&gt;&lt;li&gt;Cloud&lt;/li&gt;&lt;ul&gt;&lt;li&gt;ECS&lt;/li&gt;&lt;li&gt;EKS&lt;/li&gt;&lt;li&gt;Lambda&lt;/li&gt;&lt;/ul&gt;&lt;/ul&gt;&lt;li&gt;VM based&lt;/li&gt;&lt;ul&gt;&lt;li&gt;On-prem&lt;/li&gt;&lt;li&gt;Cloud&lt;/li&gt;&lt;ul&gt;&lt;li&gt;EC2&lt;/li&gt;&lt;li&gt;Elastic Beanstalk&lt;/li&gt;&lt;/ul&gt;&lt;/ul&gt;&lt;/ul&gt;&lt;li&gt;Vendor Hosted&lt;/li&gt;&lt;ul&gt;&lt;li&gt;SageMaker endpoint&lt;/li&gt;&lt;/ul&gt;&lt;/ul&gt;&lt;p&gt;&lt;/p&gt;" style="text;html=1;strokeColor=default;fillColor=none;spacing=5;spacingTop=-20;whiteSpace=wrap;overflow=hidden;rounded=0;" vertex="1" parent="1">
          <mxGeometry x="40" y="40" width="400" height="400" as="geometry" />
        </mxCell>
      </root>
    </mxGraphModel>
  </diagram>
</mxfile>
